<svg width="800" height="800" viewBox="0 0 800 800" fill="none" xmlns="http://www.w3.org/2000/svg">
<path d="M400 313.044C351.975 313.044 313.044 351.977 313.044 400C313.044 448.023 351.977 486.956 400 486.956C448.024 486.956 486.956 448.023 486.956 400C486.956 351.977 448.025 313.044 400 313.044ZM426.088 400C411.7 400 400 388.294 400 373.912C400 359.531 411.699 347.825 426.088 347.825C440.475 347.825 452.175 359.531 452.175 373.912C452.174 388.294 440.475 400 426.088 400Z" fill="white"></path>
<path d="M653.539 183.35L688.191 148.695C698.392 153.569 709.678 156.522 721.739 156.522C764.961 156.522 800 121.484 800 78.2609C800 35.0375 764.962 0 721.739 0C678.516 0 643.478 35.0375 643.478 78.2609C643.478 90.3203 646.431 101.605 651.305 111.809L607.956 155.156C547.322 122.936 476.111 104.348 400 104.348C323.889 104.348 252.678 122.936 192.045 155.156L148.695 111.809C153.569 101.606 156.522 90.3203 156.522 78.2609C156.522 35.0375 121.483 0 78.2609 0C35.0391 0 0 35.0375 0 78.2609C0 121.484 35.0375 156.522 78.2609 156.522C90.3203 156.522 101.605 153.569 111.809 148.695L146.461 183.347C57.0984 247.194 0 343.994 0 452.173C0 643.961 179.442 800 400 800C620.558 800 800 643.961 800 452.173C800 343.994 742.902 247.194 653.539 183.35ZM504.348 695.652H313.044C298.633 695.652 286.956 683.975 286.956 669.564C286.956 655.153 298.633 643.477 313.044 643.477H504.348C518.759 643.477 530.436 655.153 530.436 669.564C530.434 683.975 518.758 695.652 504.348 695.652ZM400 591.305C294.516 591.305 208.695 505.47 208.695 400C208.695 294.53 294.514 208.695 400 208.695C505.486 208.695 591.305 294.53 591.305 400C591.305 505.47 505.486 591.305 400 591.305Z" fill="white"></path>
</svg>