<svg width="366" height="314" viewBox="0 0 366 314" fill="none" xmlns="http://www.w3.org/2000/svg">
<path d="M54.9972 63.9004C52.6852 54.4145 53.3179 33.7836 68.7911 36.1944C76.182 37.3603 76.894 47.4787 77.7833 55.5811C79.7792 50.3048 81.9524 45.0282 86.8136 42.2813C94.2638 38.0325 100.114 46.2141 99.462 53.2295C98.4936 63.5452 88.1973 73.4061 81.3399 80.2832C76.3995 85.2435 81.7151 97.4963 84.877 102.081C89.5211 108.859 95.8456 114.432 104.482 114.432C104.639 114.445 104.791 114.465 104.936 114.491C115.903 102.14 131.614 93.5046 147.384 92.4571C168.035 91.0935 190.821 97.5163 206.018 112.101C212.954 118.721 220.306 127.139 223.132 136.486C223.132 136.5 223.138 136.52 223.151 136.546C230.977 125.677 244.237 118.424 256.391 114.057C270.58 108.938 288.939 104.808 303.325 111.606C310.064 103.781 316.368 94.5907 327.988 96.8633C329.055 97.061 329.45 98.425 329.371 99.334C328.818 105.5 325.913 110.006 322.316 114.373C329.608 114.334 336.644 114.649 343.6 117.673C344.943 118.266 345.26 119.708 344.806 121.032C338.344 139.608 311.902 133.008 297.516 130.913C284.73 129.056 274.177 128.76 262.122 134.807C247.913 141.921 237.261 153.304 226.194 164.41C225.905 164.7 225.562 164.977 225.167 165.24C225.543 167.552 226.135 169.785 227.104 171.86C227.657 171.795 228.19 171.893 228.704 172.156C232.617 174.35 236.569 176.484 240.344 178.915C252.893 186.978 266.094 200.594 253.605 215.198C239.929 231.146 219.554 238.121 199.852 228.734C196.94 227.351 194.094 225.783 191.315 224.031C191.216 226.422 190.939 228.853 190.702 231.323C190.248 235.75 188.449 249.722 194.22 251.936C199.971 254.149 205.267 257.706 210.682 260.65C215.563 263.299 218.428 266.797 219.001 272.35C219.258 274.839 217.203 277.368 214.674 277.507C201.117 278.278 187.639 276.638 174.082 276.48C172.6 276.46 171.85 275.235 171.929 273.871C173.075 254.366 175.861 234.94 175.09 215.356C175.05 214.526 175.446 213.617 176.039 212.807C176.25 212.385 176.507 211.99 176.81 211.621C176.309 211.041 175.815 210.449 175.327 209.843C169.695 202.491 163.292 195.476 154.973 191.425C150.764 209.428 148.392 228.558 152.581 246.817C153.925 252.667 157.976 260.887 156.475 266.974C155.131 272.467 146.969 273.377 142.621 274.267C132.523 276.342 121.594 275.828 111.911 272.191C109.639 271.342 110.588 268.476 111.675 267.073C117.386 259.88 124.876 255.038 133.373 252.054C133.255 230.75 138.096 209.585 135.527 188.302C135.488 187.893 135.533 187.478 135.665 187.057C120.429 185.812 104.283 186.365 95.8448 171.247C88.632 158.323 88.869 144.569 93.8292 132.237C91.4578 132.85 88.8692 132.731 86.1026 131.585C78.277 128.344 69.3248 122.119 65.3526 114.393C61.1631 106.211 61.7755 97.6937 61.1036 88.8008C60.4317 79.987 57.0524 72.398 54.9972 63.9004ZM225.047 206.403C239.572 185.278 201.175 176.563 203.309 203.123C208.348 213.004 218.071 216.561 225.047 206.403ZM144.596 144.964C152.856 126.664 113.155 143.363 122.562 155.26C130.19 157.335 140.604 153.778 144.596 144.964ZM185.78 123.957C195.048 106.132 154.478 120.637 163.232 133.008C170.741 135.518 181.334 132.534 185.78 123.957Z" fill="black"></path>
<path d="M177.164 213.103C180.702 213.103 183.962 205.91 179.457 205.91C175.919 205.91 172.659 213.103 177.164 213.103Z" fill="black"></path>
</svg>