<svg width="366" height="314" viewBox="0 0 366 314" fill="none" xmlns="http://www.w3.org/2000/svg">
<g clip-path="url(#clip0_26_728)">
<path d="M149.982 121.822C150.359 121.227 150.657 120.036 150.2 119.421C147.343 115.591 143.453 113.765 138.69 113.586C137.638 113.546 137.618 113.844 135.812 114.32C132.696 115.412 131.009 116.226 131.625 118.448C133.192 124.204 132.934 130.277 135.177 135.873C135.872 137.58 138.114 136.151 138.848 135.397C142.976 131.209 146.787 126.784 149.982 121.822Z" fill="black"></path>
<path d="M204.498 115.928C209.103 115.888 213.151 116.265 215.989 120.076C216.485 120.731 216.108 121.842 215.791 122.457C212.735 128.193 207.793 131.864 202.99 136.012C202.276 136.627 200.331 137.262 199.854 135.952C197.91 130.654 196.401 123.45 196.282 117.774C196.282 117.774 200.37 115.968 204.498 115.928Z" fill="black"></path>
<path d="M195.844 145.558C194.991 143.95 193.046 145.181 192.192 146.034C189.414 148.813 186.556 151.551 183.163 153.576C182.031 154.25 180.979 155.56 181.218 156.989C181.376 157.842 181.218 156.989 182.508 158.597C182.448 159.331 183.063 159.609 183.897 159.867C188.104 161.196 191.696 163.697 196.281 163.34C198.067 163.201 199.635 161.435 199.416 159.609C198.801 154.786 198.186 149.904 195.844 145.558Z" fill="black"></path>
<path d="M145.636 153.734C148.652 153.675 152.205 152.464 155.162 151.77C156.869 151.373 158.178 149.269 157.523 147.602C155.717 143.077 152.979 139.128 149.287 135.913C147.779 134.623 145.715 136.746 145.259 138.076C143.572 142.899 140.912 147.205 138.213 151.532C136.229 154.687 139.642 154.052 142.401 153.992L145.636 153.734Z" fill="black"></path>
<path d="M86.9097 18.7828C101.874 12.4718 125.431 17.4728 137.458 27.9713C143.848 33.5479 149.663 41.7443 147.917 50.7936C145.714 62.1453 138.568 71.8709 136.147 83.2028C135.095 88.1641 132.516 94.0977 139.442 93.6412C142.657 93.4163 145.872 93.139 149.087 92.8082C155.398 92.1732 162.047 91.2199 168.377 92.1129C174.946 93.0457 180.007 96.1226 185.722 99.3971C189.949 101.838 194.455 104.755 199.198 106.164C204.576 107.751 202.473 104.556 201.203 100.647C198.305 91.6372 198.385 83.5194 200.647 74.1324C204.874 56.6086 217.814 44.8398 235.814 42.4186C250.956 40.3943 274.593 36.5447 287.572 47.7574C295.173 54.3265 297.514 65.956 294.042 75.3033C289.397 87.7857 266.615 86.1592 258.657 78.777C254.866 75.2444 249.686 66.9884 244.328 65.9166C237.024 64.4481 225.99 68.4372 221.604 74.4703C213.488 85.6236 221.029 97.8887 227.002 107.851C234.127 119.719 238.83 135.04 237.679 149.507C243.832 160.879 261.931 164.293 273.779 165.087C290.271 166.178 306.128 160.979 322.481 160.126C324.604 149.429 328.376 140.915 339.708 136.985C340.382 136.747 341.314 136.985 341.652 137.66C345.581 145.618 342.664 152.127 339.787 159.311C349.67 153.893 365.804 151.096 366.162 165.305C366.379 173.898 357.906 177.372 349.59 178.781C355.584 182.671 358.085 188.207 351.793 196.304C345.939 203.845 338.08 198.19 332.88 192.176C332.007 198.983 329.685 206.862 323.454 206.723C307.061 206.386 314.78 187.831 317.202 179.475C318.273 175.725 287.397 179.911 284.695 180.249C274.693 181.439 263.777 182.571 253.874 179.892C248.079 178.324 236.747 175.069 233.413 169.334C233.069 168.712 232.81 168.084 232.638 167.449C224.303 183.007 205.41 191.681 188.442 193.01C166.751 194.717 141.665 190.172 123.109 178.285C121.138 177.002 119.331 175.651 117.691 174.236C117.783 175.201 117.684 176.154 117.393 177.093C114.714 185.488 106.636 190.093 104.374 199.261C101.337 211.605 100.365 224.347 101.834 237.008C102.469 242.566 102.767 259.355 110.229 260.089C116.818 260.725 131.503 261.42 126.026 271.779C122.275 278.863 112.868 279.598 105.704 277.593C105.088 287.615 99.9482 301.368 88.4976 298.65C77.9595 296.13 77.1261 286.782 81.4126 279.558C72.4822 282.079 60.9522 283.368 60.0386 273.367C59.344 265.567 68.1552 262.233 75.9546 260.526C69.2865 257.43 61.4679 252.964 66.0122 246.118C72.6208 236.116 78.3954 239.708 85.3413 244.253C81.0745 229.864 79.6459 214.186 82.2456 199.5C85.3813 181.837 95.3242 168.837 103.183 153.139C103.395 152.743 103.646 152.418 103.937 152.167C101.714 143.494 101.734 133.908 103.004 123.867C103.018 123.721 103.051 123.576 103.104 123.43C103.117 123.364 103.124 123.298 103.124 123.232C105.386 112.734 111.122 103.108 114.357 92.8082C117.909 81.4963 124.279 70.7193 126.76 59.1295C127.812 54.2276 129.122 39.4614 119.933 40.4537C114.614 41.0293 110.149 44.6022 105.584 47.0631C99.1347 50.5162 92.2276 52.778 85.2222 49.1266C70.0009 41.208 71.2516 25.3717 86.9097 18.7828ZM145.216 117.218C138.449 114.4 130.57 116.663 124.358 119.481L122.552 120.493C110.724 126.685 124.934 151.036 136.207 152.168C153.671 153.854 162.125 140.339 179.034 151.611C192.569 161.196 208.922 164.015 221.881 149.924C234.86 135.814 221.326 119.481 203.841 121.723C190.882 123.41 173.973 136.39 159.882 130.754C153.671 127.935 151.984 120.592 145.216 117.218ZM280.844 52.7389C276.2 49.385 268.798 49.4245 264.194 52.818C264.154 52.8445 264.107 52.8706 264.054 52.8971C264.015 52.9235 263.968 52.9571 263.916 52.9967C263.849 53.0496 263.79 53.1093 263.737 53.1754C263.684 53.2282 263.631 53.2745 263.579 53.3141C258.875 58.9305 259.053 65.5394 265.404 69.7467C270.921 73.4182 279.236 73.6957 284 68.7741C288.624 63.9714 285.528 56.1128 280.844 52.7389ZM106.3 24.8346C102.073 20.4685 96.476 20.8066 91.6138 23.7438C91.389 23.7968 91.1439 23.9486 90.8794 24.1998C90.6282 24.3718 90.4428 24.5707 90.3238 24.7955C87.2677 28.2686 85.4818 34.5991 89.0933 38.3102C92.8442 42.1603 99.87 41.3467 104.038 38.5485C108.602 35.4922 110.488 29.1809 106.3 24.8346Z" fill="black"></path>
<path d="M95.564 28.9829C94.5915 29.7966 94.4526 31.0072 94.5915 32.0591C94.8495 33.8452 96.4174 34.3017 98.005 34.1032C99.7118 33.9047 101.538 32.8529 101.339 30.8882C101.141 29.241 99.3744 27.9311 97.8066 28.1296C97.1516 28.1891 96.4967 28.4669 95.9609 28.7249L95.564 28.9829Z" fill="black"></path>
<path d="M269.652 58.216C268.223 59.4266 268.025 61.2128 268.204 62.7607C268.601 65.3606 270.903 66.0353 273.225 65.7376C275.745 65.4598 278.444 63.9118 278.146 61.0143C277.849 58.6129 275.249 56.6879 272.947 56.9657C271.974 57.0649 271.002 57.442 270.228 57.8389L269.652 58.216Z" fill="black"></path>
</g>
<defs>
<clipPath id="clip0_26_728">
<rect width="366" height="314" fill="white"></rect>
</clipPath>
</defs>
</svg>