<svg width="366" height="314" viewBox="0 0 366 314" fill="none" xmlns="http://www.w3.org/2000/svg">
<path d="M181.12 31.232C211.673 27.8041 224.714 63.1111 228.302 87.3736C232.596 116.248 230.458 149.311 216.603 175.553C212.133 184.036 206.036 192.606 197.925 198.137C196.794 209.677 196.635 221.34 198.367 232.826C199.233 238.498 201.123 242.598 203.633 247.634C205.647 251.681 208.864 256.223 210.436 260.323C213.864 269.3 208.21 282.694 197.501 282.995C179.282 283.489 181.402 270.519 186.05 257.636C190.061 246.557 190.68 236.201 191.122 224.574C191.334 218.689 193.666 207.45 189.566 202.414C182.957 204.888 176.808 205.33 171.012 204.234C170.87 208.811 170.587 213.458 169.739 217.964C168.732 223.443 170.376 226.942 172.249 231.642C174.299 236.732 175.253 242.28 175.713 247.741C176.278 254.491 172.196 262.284 165.392 263.91C155.691 266.242 151.662 251.01 152.775 244.401C153.853 237.898 158.412 232.561 160.18 226.323C162.371 218.53 162.494 210.401 162.512 202.361C162.052 202.219 161.981 201.76 162.158 201.318C156.168 198.508 150.513 194.161 145.088 188.895C144.699 188.683 144.369 188.318 144.099 187.799C132.983 165.392 128 140.175 129.166 115.188C130.085 95.5377 133.443 76.0642 144.434 59.3473C152.775 46.6593 165.057 33.0168 181.12 31.232ZM206.761 89.7594C204.976 68.3066 194.444 62.7928 174.794 63.6939L169.245 67.4234C143.339 82.6031 146.908 153.182 188.895 137.101C206.761 129.962 207.662 105.84 206.761 89.7594Z" fill="black"></path>
<path d="M169.846 99.3905C173.787 107.13 181.386 109.905 186.864 101.953C198.226 85.4302 168.168 78.5913 169.846 99.3905Z" fill="black"></path>
</svg>