<svg width="366" height="314" viewBox="0 0 366 314" fill="none" xmlns="http://www.w3.org/2000/svg">
<path d="M89.0793 30.5943C109.061 21.8766 132.098 20.5936 153.567 23.2007C173.894 25.6653 193 32.1015 207.013 47.6831C214.529 56.0546 217.319 66.789 219.417 77.5435C221.8 89.846 225.284 100.702 232.575 111.049C249.155 134.636 275.491 142.967 303.315 134.616C304.74 134.188 306.309 135.267 306.003 136.876C303.518 149.24 293.375 157.856 281.744 160.137C291.399 166.35 300.504 174.599 304.822 184.05C311.177 197.982 300.891 206.415 287.998 209.694C286.104 210.183 284.759 208.451 285.492 206.659C290.808 193.603 271.194 178.326 257.873 179.385C262.925 191.321 263.067 207.841 276.184 213.157C288.303 218.065 301.726 217.495 314.273 214.562C316.167 214.134 317.532 215.784 316.799 217.617C310.505 233.117 291.013 238.78 275.553 235.847C258.219 232.568 252.088 213.787 238.217 206.475C238.624 209.367 238.462 212.545 239.155 216.069C241.212 226.253 249.461 228.718 257.14 234.075C258.178 234.808 257.914 236.702 257.303 237.598C252.353 244.91 243.126 247.049 234.857 243.892C224.672 240.002 223.043 228.168 214.529 223.239C212.919 231.447 212.35 239.269 219.865 245.603C226.567 251.265 234.287 253.751 242.903 254.668C252.802 255.706 264.798 256.053 273.394 261.654C279.912 265.87 284.372 274.241 279.321 281.472C274.432 288.499 265.572 290.088 257.893 292.389C253.962 293.55 255.205 287.725 257.669 286.605C260.5 285.322 253.799 282.267 251.66 281.33C248.605 280.006 245.856 279.191 242.576 278.559C232.738 276.706 222.962 274.852 213.939 270.391C200.027 263.507 190.148 250.125 185.015 235.724C183.426 239.309 188.599 248.292 189.394 251.327C190.473 255.461 189.456 259.169 187.5 262.896C183.019 271.451 171.124 272.551 162.814 271.023C160.695 270.636 161.673 267.377 162.61 266.399C170.431 258.292 171.144 234.075 164.341 224.685C141.223 212.994 118.471 199.998 97.9807 184.09C80.9731 170.912 62.0913 154.903 53.8625 134.351C39.6047 98.7065 51.3573 47.0114 89.0793 30.5943ZM187.642 93.1861C172.447 66.6053 152.017 49.8628 122.89 51.146L112.482 53.8755C84.6382 61.4731 64.8201 93.1862 69.8918 123.576C76.2264 161.563 126.862 175.495 159.778 161.563C190.167 148.894 202.837 122.313 187.642 93.1861Z" fill="black"></path>
<path d="M90.3012 96.649C83.5185 100.112 81.0743 106.792 88.0607 111.599C102.583 121.56 108.572 95.1825 90.3012 96.649Z" fill="black"></path>
<path d="M129.124 72.5531C122.342 76.0157 119.898 82.6965 126.884 87.5035C141.386 97.4636 147.395 71.0865 129.124 72.5531Z" fill="black"></path>
<path d="M191.716 93.8178C184.71 77.7064 170.859 63.0819 155.562 54.7104C141.834 47.1741 127.393 46.9908 112.748 50.8201C80.5454 60.5562 56.8569 99.745 68.9354 132.742C80.4028 164.109 118.471 174.293 148.494 168.101C183.671 160.85 206.565 128.037 191.716 93.8178ZM78.1623 136.754C59.9326 107.628 81.6046 66.1575 112.218 56.9103C140.816 49.3943 164.3 64.3244 180.228 87.7073C181.722 89.9071 183.087 92.1612 184.323 94.4696C183.766 94.7683 183.291 95.2029 182.897 95.7732C179.597 100.601 170.716 108.809 164.708 109.277C160.227 109.644 153.424 102.902 148.678 101.762C146.315 101.212 143.545 103.941 144.075 106.344C144.849 109.889 146.05 113.29 146.906 116.814C148.291 122.374 136.66 124.737 133.442 125.817C131.018 126.611 126.619 129.3 124.765 127.466C121.608 124.35 118.207 122.13 114.174 120.378C112.157 119.523 109.489 122.334 109.53 124.208C109.672 129.544 112.198 138.852 106.678 142.295C101.688 145.411 95.9847 146.654 91.5444 150.748C91.4901 150.788 91.4425 150.836 91.4018 150.89C86.1671 147.041 81.6453 142.315 78.1623 136.754ZM188.498 132.396C182.713 148.568 164.728 158.243 149.024 162.032C131.691 166.207 111.363 163.396 95.7403 153.844C101.545 149.627 109.143 148.446 113.827 142.539C116.394 139.301 116.333 134.147 115.946 129.381C118.186 130.97 120.162 132.823 122.26 134.881C122.993 135.614 124.236 135.308 125.03 134.921C132.974 131.092 142.588 130.155 149.309 124.024C153.525 120.175 153.139 115.51 151.957 110.805C157.192 113.84 162.304 117.445 168.456 114.329C175.075 110.968 181.919 105.143 186.543 99.0322C191.146 109.542 192.592 120.908 188.498 132.396Z" fill="black"></path>
</svg>