<svg width="366" height="314" viewBox="0 0 366 314" fill="none" xmlns="http://www.w3.org/2000/svg">
<path d="M138.552 79.3077C137.425 75.6182 138.313 67.2663 144.291 68.0518C150.047 68.7862 151.653 77.9067 152.712 82.4844C154.967 92.3399 159.152 101.905 159.101 112.103C161.981 111.898 164.868 111.698 167.76 111.505C169.582 111.391 171.433 111.357 173.312 111.402C174.336 106.244 174.183 100.744 174.917 95.5342C175.515 91.3666 175.925 85.4564 179.409 82.5186C183.167 79.3592 185.917 85.6452 186.191 88.4463C186.976 96.4056 183.286 104.194 182.739 112.085C187.129 112.563 191.536 113.196 195.823 113.726C195.846 113.373 195.983 113.002 196.234 112.615C198.3 109.66 198.198 103.955 198.693 100.505C199.377 95.8761 200.043 91.2471 200.931 86.6524C201.614 83.0655 202.997 73.1416 208.053 72.3555C220.778 70.4083 211.316 106.534 209.608 115.092C211.27 115.251 212.932 115.416 214.595 115.587C214.572 115.314 214.641 114.989 214.8 114.613C218.643 106.432 219.105 96.4228 227.013 90.752C227.457 90.4275 228.447 89.9322 228.943 90.5127C235.758 98.4211 227.184 108.294 226.176 116.731C226.165 116.823 226.147 116.908 226.124 116.987C232.085 117.824 238.013 118.883 243.855 120.301C259.757 124.161 280.56 131.131 286.914 148.092C287.95 150.882 288.606 153.683 288.879 156.495C288.97 156.438 289.061 156.393 289.152 156.358C302.254 152.925 334.16 157.758 331.222 135.656C330.197 127.97 315.558 131.574 310.759 125.903C307.36 121.889 310.451 111.385 314.841 109.079C316.037 108.447 317.079 109.113 317.472 110.292C317.352 109.916 321.981 119.533 322.443 115.587C322.682 113.572 323.023 111.761 323.62 109.831C323.894 108.909 325.414 107.406 326.422 108.328C328.933 110.617 330.248 113.554 332.315 116.15C333.971 113.759 334.775 111.112 335.68 108.26C335.953 107.355 338.002 105.493 338.72 107.047C340.001 109.831 340.787 112.478 343.588 113.879C347.346 106.876 353.272 101.103 355.612 113.691C357.389 123.325 352.948 127.509 344.407 128.653C343.126 140.388 342.136 153.113 333.391 161.858C322.186 173.097 301.928 168.384 287.922 168.708C287.899 168.697 287.876 168.69 287.854 168.69C285.77 176.65 280.97 183.995 274.445 189.648C260.303 201.861 242.351 204.577 224.416 206.968C219.884 207.583 215.352 208.147 210.82 208.659C210.24 219.403 214.424 244.443 197.72 242.872C193.245 242.445 194.423 235.476 194.781 232.691C195.174 229.566 196.131 225.689 195.226 222.614C193.415 216.431 188.155 221.521 186.191 224.954C183.833 229.053 179.085 228.336 176.557 224.407C175.635 222.956 174.917 221.316 173.909 219.933C172.27 217.678 173.756 228.592 174.012 229.651C174.849 232.999 175.31 236.569 173.483 239.729C169.52 246.629 163.37 248.098 157.904 241.642C154.847 238.003 153.993 232.35 153.43 227.823C152.576 220.803 151.294 215.201 146.238 209.872C146.136 209.747 146.056 209.621 145.999 209.496C135.529 208.266 125.161 206.148 115.306 202.562C101.078 197.369 82.8527 188.35 77.5236 172.909C75.5081 167.034 75.0983 161.158 75.9523 155.504C71.7675 156.853 65.6176 152.566 60.7667 148.98C57.7266 146.708 54.3791 144.829 50.6046 144.061C47.5643 143.446 40.7489 142.164 40.8341 148.501C40.8854 152.173 40.2534 151.473 42.9347 151.183C47.1877 150.739 55.4378 149.065 57.8634 154.035C60.0156 158.425 61.1768 163.908 58.256 168.195C56.0013 171.492 52.2438 171.304 49.7501 168.656C47.6151 166.402 47.3247 166.829 46.129 168.964C45.2238 170.604 43.7721 170.825 42.0812 171.235C38.0844 172.226 36.3416 167.973 34.8214 164.779C33.6601 166.761 33.0109 168.998 32.174 171.15C31.8664 171.97 30.7563 173.319 29.6974 172.841C27.3233 171.748 25.8206 170.535 24.4201 168.314C21.4822 163.669 19.2958 168.571 17.0753 170.382C14.7694 172.244 11.3699 170.655 10.6525 167.99C9.61058 164.181 9.52529 159.211 12.5997 156.188C14.4103 154.411 16.2383 153.694 18.715 153.13C25.0686 151.678 24.6073 146.52 25.8712 141.908C32.3618 117.978 67.2234 133.914 79.5558 143.94C87.4642 127.424 105.809 115.007 123.948 114.528C130.872 114.05 137.795 113.571 144.718 113.093C151.226 100.624 142.207 91.3153 138.552 79.3077ZM215.635 135.998C179.082 134.205 147.107 135.588 119.727 136.032L114.484 137.604C98.24 144.948 94.5678 163.293 107.139 175.335C119.198 186.352 135.441 187.394 151.172 188.965C173.701 191.066 196.231 191.065 218.777 191.065C233.45 191.065 255.979 186.864 266.467 175.335C294.24 145.461 230.308 137.04 215.635 135.998ZM240.999 133.863C248.822 139.329 252.033 124.895 242.212 125.698C238.557 127.594 237.259 131.25 240.999 133.863ZM112.879 131.13C120.685 136.579 123.913 122.163 114.092 122.948C110.437 124.844 109.122 128.5 112.879 131.13Z" fill="black"></path>
<path d="M134.963 134.82C132.367 134.769 129.788 134.342 127.208 134.871C126.844 134.962 126.525 135.156 126.252 135.452C126.161 135.065 126.058 134.677 125.944 134.29C125.33 132.497 122.375 135.076 122.938 136.733C123.912 139.534 123.468 142.643 124.663 145.376C126.098 148.655 130.488 147.835 133.204 147.152C134.194 146.913 134.809 145.973 134.997 145.034C135.561 142.079 136.005 139.124 136.039 136.118C136.039 135.435 135.732 134.82 134.963 134.82Z" fill="black"></path>
<path d="M159.442 135.4C156.726 134.734 154.096 134.41 151.329 134.871C151.317 134.871 151.312 134.871 151.312 134.871C150.338 134.837 149.006 135.861 149.006 137.006C149.006 140.319 149.006 143.639 149.006 146.964C149.006 147.459 149.143 148.057 149.706 148.211C152.849 149.031 155.924 148.604 157.785 145.7C159.442 143.138 159.442 139.978 160.057 137.091C160.177 136.51 160.228 135.588 159.442 135.4Z" fill="black"></path>
<path d="M185.268 134.29C182.893 134.256 180.587 134.017 178.247 134.222C177.496 133.18 175.207 134.461 175.207 135.947C175.207 139.272 175.207 142.592 175.207 145.905C175.207 146.588 175.514 147.22 176.3 147.22C178.674 147.22 181.202 147.289 183.508 146.64C184.379 146.383 185.302 145.461 185.302 144.505C185.302 141.652 185.268 138.766 186.258 136.033C186.549 135.264 186.207 134.307 185.268 134.29Z" fill="black"></path>
<path d="M213.947 134.341C211.641 133.744 209.284 132.753 206.875 133.3C206.141 133.453 206.397 132.719 206.141 133.453C205.201 132.855 202.468 133.846 202.485 137.416C202.485 140.439 202.981 143.411 202.998 146.435C202.998 146.913 203.117 147.562 203.698 147.681C206.909 148.382 210.547 148.484 212.478 145.307C214.151 142.54 213.776 139.073 214.561 136.032C214.715 135.452 214.698 134.546 213.947 134.341Z" fill="black"></path>
<path d="M240.319 139.893C240.268 139.329 239.755 139.056 239.26 139.005C237.586 138.834 236.254 137.604 234.529 137.433C233.948 137.365 233.367 137.758 232.957 138.287C232.803 137.672 232.171 137.314 231.505 137.485C230.532 137.758 229.883 138.663 229.712 139.62C229.199 142.745 228.704 145.871 228.67 149.048C228.67 149.578 228.807 150.124 229.37 150.295C232.24 151.2 235.434 151.32 237.74 149.082C240.216 146.674 240.541 143.172 240.319 139.893Z" fill="black"></path>
</svg>