<svg width="366" height="314" viewBox="0 0 366 314" fill="none" xmlns="http://www.w3.org/2000/svg">
<path d="M194.332 62.6525C209.462 60.3706 227.594 59.0061 240.715 68.6545C246.643 73.02 251.207 78.5768 254.729 84.8273C280.525 85.1745 305.552 78.2783 330.629 72.9455C334.821 72.0527 335.317 77.0884 332.935 79.4943C313.34 99.3124 288.81 110.474 264.924 123.992C266.586 156.436 257.408 216.436 294.614 228.268C299.748 229.905 293.87 236.602 290.794 236.999C280.5 238.363 271.372 237.817 262.642 233.849C262.493 239.702 261.252 245.631 256.143 248.31C250.835 251.112 244.807 245.879 240.343 241.142C235.456 252.799 225.758 264.606 212.81 258.852C210.504 257.835 210.802 255.329 211.744 253.419C215.316 246.251 213.728 239.975 210.082 234.147C199.392 241.315 197.383 251.535 199.317 264.383C199.738 267.236 194.952 273.708 191.976 270.385C186.32 264.134 180.566 258.281 176.076 251.286C169.106 261.977 163.897 272.296 149.809 275.867C146.857 276.611 145.542 274.106 146.236 271.551C146.559 270.336 150.974 249.575 143.037 256.173C140.97 257.76 139.11 259.563 137.456 261.58C134.852 264.78 132.57 268.079 130.61 271.725C128.924 274.875 122.995 276.884 122.995 271.675C122.995 263.961 123.07 256.271 123.566 248.582C115.282 253.989 108.163 261.01 99.8534 266.442C98.0924 267.583 95.3887 266.987 95.0165 264.73C93.7516 256.941 96.2812 250.467 100.944 244.217C107.145 235.883 110.99 230.426 110.99 219.661C110.593 197.735 104.541 176.7 100.498 155.32C79.7124 161.248 50.816 158.47 32.7587 148.573C29.7326 146.912 31.0475 142.843 33.4286 141.082C52.7261 126.87 76.4885 121.388 96.4804 108.391C97.0921 107.994 97.6377 107.746 98.1171 107.647C99.3325 101.818 101.54 96.286 105.385 91.6476C113.892 81.3791 126.567 77.1378 139.267 74.5334C157.572 70.7632 175.853 65.4306 194.332 62.6525ZM177.367 127.763C171.365 117.271 161.864 111.764 150.355 112.26L145.866 114.766C134.853 117.767 128.85 127.763 130.859 139.768C133.365 154.774 153.356 160.281 166.353 154.775C178.358 149.764 183.369 139.272 177.367 127.763ZM238.507 110.648C234.414 101.669 222.533 95.9638 213.753 100.776C204.724 103.926 198.399 113.575 201.872 123.274C205.543 133.567 217.821 136.469 227.494 133.74C238.061 130.739 243.021 120.52 238.507 110.648ZM214.199 103.654C229.205 95.3195 248.652 122.752 227.768 130.566C221.368 132.972 213.579 131.136 208.42 126.919C200.061 120.073 204.575 106.853 213.827 103.802C213.844 103.802 213.86 103.794 213.877 103.778C213.976 103.744 214.084 103.703 214.199 103.654ZM219.51 110.609C216.77 110.609 214.549 112.83 214.549 115.57C214.549 118.309 216.77 120.53 219.51 120.53C222.249 120.53 224.47 118.309 224.471 115.57C224.471 112.83 222.249 110.609 219.51 110.609Z" fill="black"></path>
</svg>