<svg width="366" height="314" viewBox="0 0 366 314" fill="none" xmlns="http://www.w3.org/2000/svg">
<path d="M195.066 25.067C210.546 23.9713 232.423 36.4294 230.267 54.4009C229.03 64.615 223.181 72.8677 217.331 81.0318C209.45 92.0409 203.901 102.768 205.651 115.792C205.898 116.145 206.005 116.622 205.881 117.17C206.093 118.454 206.381 119.761 206.746 121.092C211.465 120.668 216.395 121.446 221.378 123.655C223.941 114.943 230.956 109.853 239.686 107.397C245.04 105.913 250.589 105.206 255.926 103.686C264.037 101.407 268.472 96.6179 272.501 89.3199C276.689 81.7212 281.921 75.2177 291.481 75.147C301.341 75.0588 312.509 78.5754 322.158 75.6422C334.775 71.7898 322.423 64.226 321.398 58.6949C320.815 55.5848 321.221 51.5381 323.395 49.0289C328.413 43.1799 331.859 49.8599 336.012 53.023C337.956 54.4896 339.299 50.0185 342.056 48.0924C343.699 46.9261 346.951 45.8309 348.912 46.9088C352.393 48.8173 352.287 51.6976 350.873 54.3482C355.026 53.712 358.896 54.1188 361.388 58.3599C361.971 59.3317 361.14 60.4796 360.469 61.1158C359.126 62.4411 357.872 63.4841 356.511 64.3853C362.961 68.7679 359.532 79.7418 350.502 79.7418C347.074 79.7238 342.003 74.9002 340.236 79.9713C339.016 83.4171 336.931 85.9089 334.333 88.4888C330.128 92.6592 323.784 94.2326 318.023 93.5611C309.505 92.5715 295.333 86.3336 288.017 92.8013C282.857 97.3782 281.514 104.782 277.697 110.348C275.081 114.148 270.557 117.452 265.839 117.894C259.053 118.53 250.112 115.421 244.333 120.598C240.322 124.203 237.636 128.656 234.738 133.127C234.596 133.339 234.42 133.551 234.208 133.763C238.608 139.206 242.037 145.956 244.617 152.989C256.986 144.807 272.608 140.69 287.133 139.029C301.358 137.385 322.228 136.696 332.725 148.748C343.363 160.958 349.124 185.293 341.19 200.26C334.828 212.259 312.916 225.353 305.812 207.77C285.861 215.722 290.898 197.839 299.433 194.393C297.1 188.632 303.249 181.405 309.045 184.621C310.441 180.309 314.718 177.429 319.383 181.211C322.175 183.472 322.352 189.515 320.708 192.449C320.32 193.138 319.755 193.863 319.136 194.358C316.356 195.984 317.428 198.039 322.352 200.525C329.032 199.641 329.756 194.181 328.82 188.809C326.063 172.923 315.443 156.453 297.506 156.276C280.436 156.117 265.256 164.829 249.105 169.176C249.741 172.428 250.2 175.538 250.5 178.419C251.702 189.834 250.765 203.635 237.318 206.338C226.362 208.547 209.893 196.585 201.428 207.646C195.985 214.768 192.486 223.109 184.869 228.357C177.041 233.764 165.873 238.695 154.828 240.445C154.77 240.504 154.711 240.563 154.652 240.622C151.664 243.326 131.874 258.31 141.557 260.519C154.015 263.364 166.633 255.536 179.038 254.529C188.475 253.769 196.215 255.324 202.647 262.675C205.085 265.467 208.532 270.15 212.773 269.973C216.13 269.832 219.417 268.806 222.668 267.835C221.237 258.398 227.864 249.44 238.625 253.097C244.881 255.218 244.386 260.448 241.417 264.159C244.245 264.777 246.454 266.58 245.606 270.327C244.97 273.172 243.362 275.168 241.259 276.511C245.535 279.869 241.365 287.467 233.89 288.192C231.805 288.404 229.154 288.139 227.669 286.408C224.294 282.449 223.799 284.251 218.781 286.177C209.45 289.729 203.777 287.715 198.617 279.622C189.393 265.131 170.521 268.065 157.338 274.55C151.719 277.307 143.254 281.99 136.715 279.586C129.311 276.865 127.031 268.453 126.943 261.19C126.837 252.425 130.142 245.816 135.549 239.455C135.384 239.408 135.219 239.36 135.054 239.313C124.133 235.496 121.076 226.873 119.326 217.348C118.514 218.974 117.206 220.494 115.174 221.996C112.082 224.311 107.611 224.417 103.989 225.106C97.3088 226.396 93.4733 230.107 91.5648 236.557C89.9037 242.124 88.5256 249.298 83.3128 252.796C77.2692 256.879 69.3348 258.239 62.1956 256.56C53.5367 254.528 47.7223 249.987 40.2474 245.693C38.551 244.739 36.413 243.36 34.4339 242.919C30.2989 241.964 35.759 246.806 35.5823 246.7C37.6675 248.007 40.9017 249.103 42.5628 250.959C49.4899 258.663 41.0431 268.453 33.6566 263.859C30.9528 270.009 20.9334 270.132 17.8763 262.834C13.1051 265.113 7.09696 264.901 5.27667 259C3.42119 252.991 11.3202 250.146 16.3919 248.415C14.7838 241.947 14.1474 233.447 21.6224 230.672C29.9808 227.562 40.5656 231.715 48.5706 234.171C53.5893 235.709 58.6439 237.476 63.8216 238.448C72.7807 240.144 77.4281 234.365 81.5101 226.802C89.2677 212.471 101.249 206.162 116.57 201.709C116.216 200.272 115.799 198.864 115.316 197.486C113.761 194.782 112.452 191.866 111.569 188.844C96.7072 196.973 76.4565 182.394 68.2747 170.325C58.8029 156.382 62.2312 144.861 75.1312 135.424C85.4865 127.879 93.2262 119.184 88.7025 105.259C86.6526 98.9331 82.9592 90.4333 77.3929 86.3511C72.7101 82.923 70.9606 86.4571 66.4193 86.1568C61.5244 85.8211 54.8795 83.8061 56.1693 77.8511C56.8938 74.4936 60.5524 72.7617 64.1927 71.9488C63.1147 70.164 63.344 68.0432 65.5882 65.6929C68.7514 62.4061 73.2757 62.9013 76.9866 64.6861C82.1643 58.4128 100.33 68.0436 88.8441 79.5123C99.5174 92.9777 107.345 112.204 96.5306 128.161C90.5224 137.032 78.4174 146.751 81.5628 158.644C84.991 171.562 97.856 177.8 110.438 175.308C111.304 165.342 115.651 155.075 125.264 151.063C132.827 147.9 140.02 148.483 147.725 150.939C154.405 153.06 161.791 154.969 168.312 151.01C173.825 147.67 177.271 142.757 180.911 137.615C184.251 132.861 188.298 128.903 192.822 126.023C187.909 116.657 184.287 102.361 187.202 92.7125C190.684 81.1202 202.4 76.207 207.189 65.7457C211.606 56.0974 205.156 44.1876 195.331 40.7769C192.239 39.699 188.634 38.6913 185.4 39.9283C178.508 44.0633 176.859 47.3974 180.451 49.9302C181.565 50.8667 181.759 52.0153 182.148 53.3228C183.049 56.433 181.088 61.1166 178.225 62.6363C174.779 64.4384 171.793 62.8305 169.248 60.5865C165.679 65.6756 158.221 63.0952 158.699 56.2388C146.435 58.0767 158.575 45.1414 163.682 41.5718C165.555 40.2644 168.895 40.7412 168.665 38.7271C168.383 36.0237 171.368 34.3092 172.888 32.7896C178.861 26.8344 186.902 25.6501 195.066 25.067ZM207.49 169.335C205.44 169.335 203.001 170.183 200.58 171.296C200.916 174.353 200.951 177.411 199.732 180.344C199.272 181.475 197.912 182.907 196.586 182.023C193.83 180.168 190.826 180.962 186.691 179.708C186.09 179.531 186.195 179.32 185.17 179.002C179.869 181.634 174.656 184.515 169.567 187.342C168.907 187.707 168.248 188.073 167.588 188.438C167.8 191.424 167.623 194.322 166.846 197.238C166.616 198.104 165.503 199.323 164.495 199.182C160.731 198.652 157.497 196.142 153.662 196.125C153.498 196.113 153.356 196.084 153.239 196.037C151.754 196.779 150.264 197.497 148.768 198.192C149.062 198.734 149.38 199.341 149.722 200.012C150.835 202.168 153.398 207.169 154.688 207.912C156.632 207.806 161.579 204.007 164.247 201.957C165.802 200.755 167.022 199.818 167.906 199.305C174.356 195.736 181.001 192.697 187.415 189.763C193.795 186.865 200.369 183.861 206.677 180.379C210.936 178.135 213.569 175.608 213.586 173.77C213.603 172.198 211.607 170.766 209.928 169.865C209.257 169.512 208.444 169.335 207.49 169.335ZM225.655 125.917C225.666 125.893 225.679 125.876 225.691 125.864L225.495 125.811C225.542 125.846 225.596 125.881 225.655 125.917ZM202.382 121.799C202.512 121.776 202.647 121.747 202.788 121.711C202.765 121.629 202.741 121.54 202.717 121.446C202.611 121.564 202.5 121.682 202.382 121.799Z" fill="black"></path>
</svg>