<svg width="366" height="314" viewBox="0 0 366 314" fill="none" xmlns="http://www.w3.org/2000/svg">
<path d="M100.539 55.5217C125.149 50.6828 152.169 53.4868 176.592 58.2219C200.454 62.8531 225.521 69.3531 245.935 83.1428C263.526 95.0429 277.462 111.845 282.841 132.696C283.505 135.326 284.122 137.978 284.689 140.65C284.939 140.387 285.229 140.206 285.561 140.11C290.38 138.905 295.281 138.075 300.1 136.891C304.149 135.873 307.659 128.895 309.611 125.967C310.359 124.825 312.539 123.87 312.602 125.988C312.747 131.387 311.958 131.927 316.838 130.889C319.87 130.266 319.974 130.245 323.048 130.037C324.626 129.934 324.086 131.969 323.546 132.675C322.57 133.942 321.802 135.189 320.93 136.372C323.172 137.577 325.228 138.864 327.347 140.421C328.759 141.459 326.703 143.598 325.519 143.682C323.9 143.765 322.321 143.973 320.722 144.035C321.386 146.112 321.947 148.23 322.404 150.39C322.695 151.761 321.158 153.194 319.85 152.924C314.865 151.906 311.875 147.732 307.14 146.486C300.12 144.637 293.121 147.4 286.247 148.812C289.238 166.485 290.047 184.948 288.677 202.414C286.974 224.242 281.553 245.031 266.953 261.915C252.665 278.447 233.039 291.53 210.921 294.106C185.542 297.034 156.8 289.059 134.516 277.2C114.952 266.816 99.2926 249.35 94.4951 227.399C85.8971 188.002 107.974 139.757 154.494 151.096C156.342 151.553 154.432 154.212 153.414 154.482C149.551 155.52 146.311 157.451 143.03 159.424C147.558 160.857 151.919 162.623 156.322 164.533C158.191 165.344 156.176 167.877 154.806 167.96C153.518 167.974 152.258 168.106 151.026 168.355C154.391 170.328 157.423 172.779 160.787 174.876C162.219 175.769 160.122 178.157 158.959 178.115C149.572 177.825 140.185 177.472 130.798 177.472C112.356 177.908 118.233 202.746 121.867 214.21C126.685 229.329 136.467 239.942 151.919 244.407C174.847 251.012 201.991 252.113 223.901 241.355C248.325 229.372 262.114 204.387 256.61 177.16C255.447 171.532 253.766 165.966 251.627 160.525C250.069 162.186 247.327 163.287 243.817 163.64C236.673 164.346 229.487 163.806 222.322 163.391C220.952 163.294 219.581 163.218 218.211 163.162C215.989 163.121 218.065 163.412 217.442 164.741C215.656 168.542 213.372 171.595 210.797 174.897C210.361 175.478 208.657 176.371 208.242 175.229C205.542 167.815 205.272 168.52 198.065 169.787C196.944 169.974 196.362 169.164 196.674 168.084C197.504 165.301 198.585 163.183 200.351 161.335C198.336 160.588 196.321 159.798 194.265 159.092C192.708 158.573 193.995 156.33 194.93 155.894C197.006 154.897 198.709 154.274 200.558 153.942C199.145 151.408 199.145 148.854 200.163 145.344C200.433 144.389 201.575 143.329 202.655 143.661C210.09 145.925 219.186 152.01 226.912 152.156C233.807 152.28 240.453 152.135 247.141 150.577C239.249 135.23 227.702 121.564 213.933 111.699C187.391 92.6968 156.966 93.839 125.772 95.5627C111.318 96.3519 77.4238 103.89 74.2255 81.8967C71.9622 66.1964 87.1645 58.1592 100.539 55.5217ZM130.176 71.5754C128.556 73.4859 126.998 75.4588 125.378 77.3694C124.879 77.9301 123.779 78.6362 123.052 77.9924C121.37 76.4558 120.269 74.8359 119.418 72.967C118.587 74.1022 117.735 75.2305 116.863 76.3518C116.365 76.9748 115.285 77.5771 114.537 76.9748C113.146 75.8327 112.086 74.5449 111.11 73.1536C110.404 74.621 109.677 76.0827 108.93 77.5364C108.535 78.3046 107.186 79.3421 106.313 78.5745C104.901 77.3077 103.821 75.9156 102.824 74.3996C102.132 75.5626 101.287 76.664 100.29 77.7024C99.7707 78.2423 98.6906 79.0107 97.9638 78.3254C96.4824 76.9271 95.0009 75.5284 93.5195 74.1301C92.9797 74.3516 92.4468 74.5804 91.9208 74.8157C90.7372 75.314 92.8549 79.2177 93.582 79.7375C94.9665 80.7482 96.4899 81.4608 98.1513 81.8762C106.043 83.8699 114.932 83.434 122.886 81.9387C126.042 81.3572 129.781 80.8377 132.585 79.1555C139.084 75.2306 134.599 72.6346 130.176 71.5754Z" fill="black"></path>
</svg>