<svg width="366" height="314" viewBox="0 0 366 314" fill="none" xmlns="http://www.w3.org/2000/svg">
<path d="M89.859 63.7775C102.236 55.5055 116.539 49.8724 131.575 51.1916C133.481 51.3591 133.272 53.6207 132.246 54.7307C124.539 63.0446 100.749 77.4108 103.702 90.6252C106.948 105.18 131.324 112.091 143.659 116.07C143.826 116.125 143.966 116.195 144.078 116.279C151.324 112.048 160.119 110.143 170.276 111.693H170.296C187.636 111.693 206.903 112.844 222.442 120.006C222.61 119.964 222.777 119.951 222.945 119.965C233.521 116.51 269.771 104.677 266.546 90.3527C263.259 75.7562 247.322 66.9183 237.772 56.5939C236.222 54.9186 238.379 52.3851 240.222 52.2385C255.803 50.8563 273.458 57.0971 285.332 67.3586C293.08 74.039 293.77 82.0808 291.404 91.6721C286.168 113.075 266.044 135.692 242.819 136.718C243.852 138.226 244.815 139.825 245.709 141.514C245.806 141.472 245.911 141.437 246.023 141.409C263.489 138.163 283.488 134.142 297.876 123.064C308.744 114.708 313.058 104.279 310.985 90.7717C309.896 83.6934 308.807 76.8033 309.016 69.6203C309.058 68.0287 310.86 66.3738 312.472 66.7717C340.115 73.7664 342.482 108.216 328.22 128.006C310.189 153.074 280.368 159.671 251.174 160.404C251.37 164.606 250.93 168.655 249.855 172.55C270.022 172.257 289.394 166.351 309.247 163.419C320.493 161.765 336.807 159.712 346.901 166.665C363.759 178.225 357.288 202.622 348.325 217.177C347.822 217.994 345.832 219.837 344.806 218.58C339.005 211.46 338.042 202.141 332.848 194.79C325.854 184.906 312.158 183.984 300.996 183.963C280.619 183.963 260.829 190.874 240.515 190.141C239.678 191.146 238.806 192.124 237.898 193.073C258.17 195.9 296.011 191.398 307.927 212.172C317.791 229.428 304.263 250.747 290.713 261.637C289.96 262.244 288.368 262.768 287.802 261.595C283.384 252.318 284.786 243.083 283.488 233.261C281.98 222.036 274.379 216.738 263.615 214.937C254.107 213.366 244.473 212.36 235.007 210.496C231.175 209.742 224.201 209.198 221.102 205.91C213.647 210.015 205.542 212.884 197.627 214.119C181.899 216.59 161.878 214.56 146.297 206.455C143.01 208.989 137.816 209.617 134.109 210.225C125.502 211.628 116.832 212.423 108.204 213.554C95.4711 215.25 87.0108 220.821 86.5709 234.601C86.2777 243.333 86.1312 251.501 82.3199 259.522C81.7754 260.653 79.9951 261.888 78.8014 260.946C65.9012 250.558 49.6715 225.136 64.3932 209.701C80.7697 192.529 107.282 194.999 129.46 192.591C128.385 191.167 127.401 189.659 126.507 188.068C126.159 188.249 125.809 188.348 125.461 188.362C105.147 189.283 85.503 182.058 65.1266 183C51.9331 183.587 39.4512 185.387 34.1109 199.167C31.6817 205.429 29.4826 211.481 25.2106 216.716C24.4357 217.679 22.6351 218.517 21.7975 217.177C12.4574 202.036 6.97091 177.786 24.1852 165.953C35.5566 158.142 53.0216 160.969 65.6285 162.833C84.2878 165.598 102.34 171.084 121.293 171.503C120.734 167.496 120.56 163.468 120.769 159.419C90.4452 159.084 53.4194 152.508 38.4459 122.394C33.1268 111.713 30.2789 99.6091 35.4723 88.3215C40.1633 78.0599 47.9751 68.5939 59.2838 65.7248C60.561 65.4109 61.2517 66.2276 61.2936 67.4211C61.5868 77.1591 58.2778 86.6043 58.6129 96.2795C59.0318 107.902 65.8383 117.179 75.4713 123.252C90.34 132.634 107.68 136.969 124.79 140.195C125.376 138.673 126.026 137.186 126.738 135.734C101.147 135.126 80.0787 108.53 77.6285 84.5305C76.6653 75.0439 82.4456 68.6989 89.859 63.7775ZM173.646 133.953C171.908 137.995 169.604 142.644 166.714 146.1C163.804 142.644 162.652 138.582 162.087 134.54C142.988 133.954 133.145 164.047 145.291 176.194C147.615 180.235 155.134 184.864 160.348 185.45C162.086 179.084 162.651 168.089 167.866 164.047C170.756 170.413 172.494 176.78 171.342 183.712C181.164 184.864 191.594 184.864 201.416 187.775C202.567 182.56 201.416 175.042 205.478 170.98C208.368 174.456 211.258 183.147 211.844 187.775C241.331 188.34 239.613 153.053 218.776 139.168C215.3 142.644 212.41 147.273 207.782 149.011C207.195 144.948 207.195 141.472 206.63 137.43C195.635 136.278 184.641 134.54 173.646 133.953Z" fill="black"></path>
</svg>