<svg width="366" height="314" viewBox="0 0 366 314" fill="none" xmlns="http://www.w3.org/2000/svg">
<path d="M302.551 69.298C312.063 67.0171 332.202 61.6004 338.397 73.0051C342.389 80.3403 342.856 88.4531 345.111 96.3586C348.066 106.649 350.191 117.121 353.509 127.307C354.286 129.691 350.657 132.905 348.48 131.402C340.549 125.907 332.799 117.302 323.442 114.347C314.992 111.651 302.162 112.74 301.099 124.04C300.737 127.799 300.684 131.531 300.684 135.316C300.684 137.934 296.097 141.044 295.034 137.571C293.738 133.423 291.379 128.551 288.061 125.596C284.191 120.844 279.534 122.096 274.091 129.354C273.883 133.941 274.169 138.478 274.272 143.066C274.324 145.45 270.591 148.327 268.829 145.943C265.822 141.873 262.92 136.482 258.565 133.708C246.953 126.373 245.553 143.455 245.112 148.069C245.06 148.613 244.775 149.286 244.335 149.908C246.59 154.963 248.068 160.795 248.56 167.586C249.675 183.293 242.494 197.237 231.505 207.579C245.735 215.122 253.226 224.946 255.273 241.172C262.09 238.191 271.836 237.984 274.946 245.967C276.994 251.151 273.054 253.873 268.544 255.195C270.15 262.763 255.532 273.338 250.037 266.21C244.516 270.409 234.744 269.009 233.526 260.56C233.137 257.812 232.956 255.401 235.107 253.302C238.995 249.518 237.907 248.222 236.533 243.272C233.319 231.893 229.794 219.788 215.798 219.762C215.158 219.745 214.7 219.615 214.424 219.373C209.421 221.836 204.185 223.702 198.924 224.868C193.861 225.992 188.737 226.604 183.554 226.708C181.895 232.099 180.313 237.673 180.313 243.323C180.313 247.004 180.546 250.71 181.428 254.287C181.998 256.672 183.787 255.687 185.42 256.257C191.848 258.408 195.813 262.815 195.45 269.709C195.061 277.485 186.638 280.544 180.443 278.315C176.659 283.758 166.473 285.391 163.932 276.837C158.593 280.31 150.765 282.643 149.677 275.8C148.303 267.065 156.674 262.529 164.45 260.87C161.184 248.766 163.569 237.439 166.965 225.154C145.555 220.695 127.359 206.439 123.964 181.764C123.359 177.427 123.195 173.348 123.472 169.529C122.867 170.307 122.227 171.059 121.554 171.784C120.62 172.769 118.028 174.35 117.121 172.355C115.981 169.841 115.255 167.145 114.089 164.631C112.084 157.961 106.865 158.669 98.4324 166.756C98.0955 168.389 94.3634 172.821 92.9637 169.633C92.0047 167.404 91.2012 164.579 89.7498 162.635C84.1858 156.051 78.1208 157.581 71.5545 167.223C71.1916 169.296 66.526 173.365 65.8778 169.452C63.9338 157.789 57.0652 144.647 42.991 145.113C33.2711 145.425 24.7173 149.287 15.5936 152.241C14.0384 152.734 12.9499 151.541 13.0018 150.064C13.8313 131.972 22.5662 116.472 30.7049 100.738C34.3336 93.7401 37.548 79.329 48.9266 82.6467C65.9557 87.5974 80.7814 102.061 95.7889 111.185C103.902 116.11 112.689 120.204 120.491 125.621C126.867 130.028 131.195 135.834 136.897 140.759C146.254 130.521 158.204 119.894 172.693 118.987C189.048 119.116 206.492 120.853 220.541 127.177C224.947 112.843 243.506 100.168 254.885 91.8478C269.399 81.2209 285.055 73.4711 302.551 69.298ZM163.905 151.023H162.428C158.073 151.023 151.594 158.151 151.594 161.546C151.438 165.59 152.708 169.97 156.285 172.562C166.16 179.664 184.122 171.421 179.12 158.151C176.839 152.319 169.4 150.867 163.905 151.023ZM194.489 144.854C192.286 144.854 188.968 148.482 188.968 150.219C188.89 152.267 189.564 154.496 191.352 155.818C196.381 159.446 205.531 155.248 202.965 148.483C201.824 145.528 198.04 144.776 195.241 144.88L194.489 144.854Z" fill="black"></path>
</svg>