<svg width="366" height="314" viewBox="0 0 366 314" fill="none" xmlns="http://www.w3.org/2000/svg">
<path d="M165.919 34.2297C168.516 33.1863 169.632 35.929 167.884 37.7981C161.646 44.3765 160.262 53.2127 163.418 61.2961C172.642 49.9356 185.387 43.0658 200.437 42.4104C203.811 42.2651 201.02 46.8522 199.393 47.4836C192.766 50.0082 190.168 55.0817 189.246 60.9319C203.034 53.4553 219.08 56.1012 234.47 56.344C237.067 56.3929 235.95 59.8153 234.664 60.762C224.735 68.19 217.72 76.7349 213.108 88.1682C221.361 97.9024 226.799 110.185 230.27 123.366C245.879 111.059 265.323 103.413 285.253 102.321C300.23 101.495 321.397 102.029 331.471 115.331C348.221 137.446 330.112 170.775 322.029 192.792C321.47 194.322 318.873 196.676 317.513 194.588C311.493 185.291 308.386 174.61 302.341 165.386C301.54 168.712 300.933 172.086 299.962 175.387C299.453 177.135 296.904 179.052 295.472 177.183C290.447 170.58 287.218 163.031 281.586 156.987C279.135 161.477 276.222 165.58 273.115 169.731C272.435 170.629 270.008 171.867 269.352 170.216C263.72 156.04 247.044 149.098 235.392 161.599L235.343 161.648C235.489 167.36 235.441 172.887 235.198 178.227C234.081 203.4 233.717 229.204 231.29 254.255C230.149 265.98 223.06 286.128 209.175 269.84C203.252 262.873 201.601 254.158 201.14 245.2C200.703 236.365 202.572 224.034 197.936 216.096C190.872 203.91 168.758 198.302 156.184 205.269C143.464 212.308 143.974 229.811 144.92 242.434C145.455 249.425 151.911 286.565 132.807 279.38C119.432 274.379 114.553 252.775 114.408 239.715C114.375 239.537 114.367 239.326 114.383 239.083C116.01 217.673 116.665 196.215 116.689 174.732C116.713 166.478 116.276 158.128 116.009 149.778C115.977 149.778 115.945 149.769 115.913 149.753C107.077 144.704 103.362 151.283 98.4586 155.749C97.5119 156.623 96.0554 156.793 95.2545 155.7C93.7333 153.629 92.2935 151.517 90.9342 149.365C87.9969 153.103 85.2774 156.987 82.6314 160.968C81.7817 162.206 79.6214 163.929 78.4078 162.084C74.5482 156.21 71.6107 148.612 64.6441 154.389C61.4075 157.059 58.2192 159.779 55.0797 162.546C48.7441 168.153 42.4329 173.761 35.7818 178.98C34.6166 179.902 32.8931 180.072 32.3834 178.372C26.072 156.962 21.5327 129.532 41.3892 113.413C64.7171 94.4794 93.119 103.389 117.127 116.448C117.143 116.238 117.166 116.035 117.199 115.841C119.456 100.839 128.754 85.9107 141.546 76.6135C141.514 76.565 141.498 76.5001 141.498 76.4192C138.803 55.0818 145.819 42.3617 165.919 34.2297ZM194.949 118.512C184.122 116.182 141.763 118.706 137.879 127.979L138.462 130.892C140.793 145.578 134.603 158.735 136.909 173.446C140.016 193.569 161.694 188.908 177.933 188.156C199.61 187.379 215.849 188.155 217.403 162.618C218.956 143.272 218.18 123.148 194.949 118.512ZM231.338 127.711C231.338 127.727 231.33 127.736 231.314 127.736C231.379 127.995 231.435 128.246 231.484 128.489L231.338 127.711Z" fill="black"></path>
<path d="M152.518 141.208C153.198 142.81 155.601 141.67 156.281 140.723C160.189 135.091 161.306 128.925 163.32 122.735C166.743 128.853 169.705 135.237 173.394 141.208C174.511 143.005 176.89 141.378 177.618 140.067C180.337 135.091 182.109 129.848 183.784 124.507C187.279 130.066 190.702 135.698 194.295 141.208C195.023 142.349 196.601 142.107 197.523 141.257C203.616 135.528 204.951 128.391 205.121 120.186C205.218 115.696 196.722 110.404 193.688 108.51C178.468 98.9219 156.596 111.569 143.245 119.798C141.4 120.308 139.774 123.318 141.303 124.604C141.481 124.88 141.732 125.041 142.056 125.09C147.785 128.124 150.163 135.674 152.518 141.208Z" fill="black"></path>
<path d="M211.093 184.903C208.665 178.203 206.408 171.624 202.597 165.556C201.456 163.735 199.126 165.386 198.373 166.672C195.266 172.11 193.591 178.276 190.775 183.834C189.537 178.955 188.105 174.392 184.779 170.192C183.711 168.833 181.988 169.512 181.017 170.678C177.303 175.168 174.268 179.926 171.622 184.951C170.7 179.781 169.195 174.95 166.209 170.192C165.117 168.444 162.689 169.974 162.01 171.333C158.635 177.96 154.314 183.082 148.925 188.107C148.553 188.074 148.181 188.034 147.809 187.985C145.284 187.621 142.905 192.67 146.158 193.132C146.32 193.148 146.482 193.172 146.644 193.204H146.183C153.335 194.305 160.618 194.879 168.03 194.928C168.321 195.486 168.831 195.608 169.389 195.462C169.389 195.478 169.397 195.494 169.413 195.511C169.413 195.494 169.421 195.47 169.438 195.438C169.794 195.341 170.15 195.171 170.506 194.928C182.934 194.807 195.484 193.107 207.476 189.49C207.881 189.393 208.277 189.296 208.665 189.199C210.462 188.665 211.748 186.675 211.093 184.903Z" fill="black"></path>
</svg>