<svg width="366" height="314" viewBox="0 0 366 314" fill="none" xmlns="http://www.w3.org/2000/svg">
<path d="M25.4113 64.535C37.1628 37.5512 71.2687 23.3966 98.1466 37.6219C120.094 49.2144 143.208 75.5978 144.657 101.681C150.029 102.175 155.331 102.794 160.42 103.324C176.548 105.021 192.617 107.194 208.627 109.845C214.158 80.1569 247.751 63.4401 274.965 59.0399C300.747 54.8872 336.744 59.2344 341.109 90.8837C341.391 92.9688 339.183 95.6367 336.956 95.0008C306.668 86.3242 256.693 82.3484 240.135 116.26C239.923 116.695 239.664 117.054 239.358 117.337C244.412 119.934 248.618 123.717 250.791 129.566C253.23 136.158 253.707 143.12 253.424 150.153C262.33 147.202 269.593 139.215 279.1 137.606C285.956 136.44 293.149 140.346 291.647 148.298C290.197 156.055 280.602 159.996 274.064 162.275C266.765 164.82 259.273 166.322 251.78 168.071C251.651 169.402 251.527 170.728 251.409 172.048C251.35 172.719 251.297 173.414 251.25 174.133C261.093 174.044 295.817 171.235 295.958 186.485C296.046 196.275 286.045 201.699 277.298 200.869C267.702 199.968 257.877 196.54 249.465 191.486C248.104 199.067 245.524 206.277 239.993 210.641C230.893 217.834 213.663 212.691 202.371 208.98C202.088 223.347 200.957 238.032 202.566 252.258C203.255 258.354 206.083 266.819 204.156 272.845C202.513 278.022 195.215 284.861 189.843 279.931C184.382 274.947 181.678 267.561 181.66 260.28C181.643 250.084 183.393 239.994 183.764 229.815C184.029 222.411 184.929 214.653 176.659 212.479C162.929 208.857 148.615 207.779 134.514 206.153C133.454 211.808 133.878 218.293 133.56 223.771C132.994 233.756 132.481 243.793 131.085 253.707C130.396 258.638 124.724 287.458 114.298 274.682C109.774 269.134 110.569 261.022 111.506 254.36C112.867 244.623 115.376 235.063 116.666 225.308C117.461 219.406 119.67 205.234 110.074 205.269C102.864 205.305 96.0961 204.845 88.8156 203.997H88.798C87.9675 204.085 87.2784 203.714 87.1017 202.548C86.5009 198.89 85.9886 195.232 85.7589 191.539C85.5351 187.958 85.4056 184.359 85.3703 180.742C81.4649 183.888 77.2764 185.053 72.1163 185.654C63.7579 186.626 45.3094 188.888 41.1564 178.304C35.4486 163.796 76.1099 161.603 85.8117 162.893C86.2004 156.379 86.8305 149.893 87.7023 143.437C87.3371 143.52 86.9602 143.508 86.5714 143.402C76.7105 140.433 37.0216 140.663 41.8458 122.974C46.7408 104.967 79.6093 120.006 90.5831 126.244C93.0571 115.606 98.182 105.886 109.81 102.988C112.342 102.364 114.928 101.892 117.567 101.574C113.767 95.6896 111.205 87.2605 105.816 81.8885C84.7691 60.8421 52.9432 71.2685 26.6837 68.0878C24.6869 67.858 24.7574 66.0371 25.4113 64.535ZM113.467 124.618C109.279 132.994 102.988 158.123 107.176 166.499C114.156 180.459 151.849 181.166 164.413 182.545C178.391 183.941 198.625 190.231 211.896 187.439C225.149 184.647 234.231 153.228 228.648 140.664C223.753 129.496 181.872 130.892 169.308 128.807C152.555 126.704 131.615 123.222 116.259 123.222L113.467 124.618ZM232.536 114.599C233.526 114.905 234.504 115.24 235.47 115.605C235.505 115.452 235.558 115.294 235.629 115.129L232.536 114.599Z" fill="black"></path>
<path d="M133.877 166.428C139.002 162.364 144.232 162.028 147.855 167.648C148.456 168.567 148.509 169.362 149.445 169.998C151.265 171.235 154.959 169.538 156.478 168.726C159.518 167.135 160.101 162.859 161.886 168.213C162.646 170.493 165.703 173.002 168.23 172.896C171.64 172.772 173.249 170.528 176.023 168.726C180.617 165.774 181.077 168.301 183.374 173.02C187.403 181.308 196.698 170.634 199.967 167.824C202.601 165.562 200.957 161.039 197.759 163.778C195.02 166.11 189.559 172.154 187.315 166.605C186.502 164.608 183.586 161.198 181.377 160.88C178.515 160.473 175.369 163.654 173.284 164.997C167.753 168.584 167.735 162.806 164.713 160.261C163.158 158.953 160.189 158.883 158.634 160.261C156.001 162.594 154.393 166.305 151.919 162.488C146.848 154.624 137.535 157.716 131.668 162.382C128.929 164.555 130.59 169.044 133.877 166.428Z" fill="black"></path>
<path d="M126.491 141.777C129.035 146.743 133.93 148.545 137.447 143.42C144.763 132.782 125.413 128.382 126.491 141.777Z" fill="black"></path>
<path d="M192.582 148.297C195.126 153.281 200.004 155.066 203.538 149.941C210.836 139.303 191.504 134.903 192.582 148.297Z" fill="black"></path>
</svg>