<svg width="476" height="491" viewBox="0 0 476 491" fill="none" xmlns="http://www.w3.org/2000/svg">
<g clip-path="url(#clip0_105_498)">
<path d="M221.458 17.6062C253.193 20.9356 283.45 35.9366 308.9 54.7583C333.002 72.5749 352.68 94.5661 359.27 124.524C362.794 140.61 358.597 156.292 353.502 171.5C347.652 188.884 344.247 205.222 346.06 223.662C350.137 265.665 377.653 295.289 419.108 304.747C421.232 305.232 422.45 307.74 420.899 309.568C408.807 323.515 389.671 327.16 373.216 321.667C381.022 336.548 386.657 353.625 385.33 368.776C383.361 391.103 364.176 394.412 345.392 389.277C342.628 388.531 342.166 385.357 344.394 383.604C360.59 370.82 346.647 337.206 328.922 328.935C326.735 347.779 314.989 368.914 327.85 385.155C339.736 400.156 357.238 409.123 375.331 414.449C378.051 415.272 378.598 418.358 376.341 420.162C357.134 435.353 328.227 428.486 310.662 413.589C290.961 396.897 296.715 368.559 284.335 349.233C282.765 353.209 280.264 357.137 278.601 362.124C273.866 376.576 282.589 385.671 288.497 398.036C289.29 399.72 287.585 401.941 286.16 402.64C274.578 408.376 261.286 404.436 253.037 394.445C242.88 382.138 249.351 365.894 242.07 353.47C234.094 362.759 227.719 372.306 232.714 385.798C237.157 397.847 245.192 406.585 255.5 413.973C267.354 422.444 282.379 431.549 289.278 444.887C294.531 454.962 294.166 468.842 282.513 474.4C271.215 479.817 258.787 475.441 247.348 472.827C241.504 471.466 247.293 464.947 251.24 465.3C255.771 465.711 249.445 456.982 247.399 454.245C244.465 450.353 241.552 447.33 237.833 444.158C226.646 434.694 215.535 425.274 207.268 413.079C194.527 394.268 191.613 370.096 195.477 348.055C190.865 351.472 190.966 366.644 189.786 371.082C188.175 377.126 184.201 381.11 179.019 384.444C167.137 392.1 151.198 384.911 141.72 376.965C139.303 374.943 142.9 371.5 144.799 370.931C160.611 366.258 179.007 335.938 177.126 319.07C156.134 287.491 136.551 254.516 121.949 219.466C109.811 190.406 97.3315 156.388 101.695 124.279C109.281 68.6002 161.575 11.2689 221.458 17.6062ZM301.749 168.471C301.597 123.656 287.676 87.5864 249.665 68.1875L234.442 64.1465C193.505 53.7138 145.372 79.7808 129.885 122.135C110.519 175.075 164.929 229.378 216.897 235.408C264.738 241.222 300.063 216.527 301.749 168.471Z" fill="black"></path>
<path d="M175.314 102.589C164.178 102.1 156.242 108.841 161.666 120.006C172.964 143.175 199.635 113.915 175.314 102.589Z" fill="black"></path>
<path d="M242.144 99.9451C231.008 99.4559 223.072 106.197 228.496 117.362C239.768 140.516 266.465 111.271 242.144 99.9451Z" fill="black"></path>
<path d="M306.481 172.218C309.194 146.645 302.12 118.023 288.689 96.3188C276.652 76.8102 258.398 66.1487 236.987 60.449C188.956 49.5914 130.497 82.3813 122.048 133.115C113.998 181.333 155.113 221.789 197.81 235.585C247.833 251.754 300.676 226.508 306.481 172.218ZM130.898 144.887C128.721 94.6384 186.259 57.4879 231.915 67.8207C273.752 78.9016 292.872 114.869 296.267 156.142C296.58 160.022 296.69 163.877 296.596 167.708C295.672 167.687 294.753 167.897 293.84 168.339C286.153 172.102 268.918 176.14 260.93 172.398C254.96 169.629 251.166 156.133 245.948 151.253C243.337 148.847 237.839 150.322 236.777 153.764C235.204 158.835 234.277 164.034 232.822 169.138C230.57 177.218 214.056 171.828 209.179 170.879C205.52 170.14 197.977 170.386 196.94 166.714C195.171 160.466 192.443 155.183 188.574 150.04C186.624 147.495 181.197 149.147 179.896 151.562C176.224 158.46 172.718 172.135 163.204 172.532C154.6 172.896 146.442 170.36 137.832 172.366C137.733 172.379 137.638 172.405 137.547 172.445C133.662 163.763 131.317 154.482 130.898 144.887ZM274.526 219.011C255.483 235.425 225.597 234.756 202.867 228.24C177.783 221.039 153.931 202.782 140.938 179.338C151.374 178.162 161.9 182.144 172.13 178.006C177.736 175.736 181.38 169.13 184.329 162.783C186.034 166.423 187.211 170.21 188.397 174.344C188.801 175.807 190.603 176.315 191.894 176.396C204.773 177.257 217.69 183.006 230.676 180.054C238.824 178.197 241.699 171.979 243.593 165.136C248.066 172.78 251.972 181.062 262.054 181.536C272.909 182.037 285.829 179.562 296.128 175.121C294.4 191.826 288.034 207.341 274.526 219.011Z" fill="black"></path>
</g>
<defs>
<clipPath id="clip0_105_498">
<rect width="476" height="491" fill="white"></rect>
</clipPath>
</defs>
</svg>