<svg width="366" height="314" viewBox="0 0 366 314" fill="none" xmlns="http://www.w3.org/2000/svg">
<path d="M274.821 12.0654C275.805 11.8987 276.539 12.0152 277.139 12.8652C282.372 20.482 286.122 28.5657 282.705 37.6992C279.688 45.7828 271.838 50.8331 265.871 56.5166C262.438 59.8 256.104 69.851 249.804 67.2177C239.337 62.8509 233.903 51.7996 225.803 44.416C224.57 43.2827 225.302 41.4164 226.169 40.3164C230.669 34.6328 237.286 32.3157 242.936 28.0322C243.97 27.2488 245.104 26.9161 246.254 27.6162C250.354 30.0495 253.203 32.9997 255.62 37.0664C256.503 38.5331 255.254 40.3331 254.221 41.2832C252.371 42.9999 250.837 46.1164 250.454 43.0664C250.821 45.9664 245.37 49.6665 244.903 45.9834C244.587 43.3501 246.92 41.1166 249.186 39.25C247.553 37.0166 245.654 35.216 243.353 33.666C239.537 36.1493 235.237 38.1328 231.887 41.1494C237.587 47.7997 250.721 65.7342 256.154 59.8173C262.454 52.9505 272.821 46.9168 276.955 38.5166C280.155 32.0496 277.671 25.2653 273.805 19.6484C271.821 16.7655 262.388 19.5816 259.588 19.8652C248.554 20.9486 237.503 21.399 226.436 21.499C221.353 30.1494 211.819 35.2663 205.719 43.25C197.952 53.4004 191.702 64.501 185.901 75.8681C187.646 75.7792 189.396 75.7069 191.151 75.6513C220.769 74.7513 252.171 77.2007 278.655 91.6513C305.273 106.169 320.156 133.854 321.557 163.788C322.94 193.323 313.923 224.124 292.289 244.525C294.123 262.276 310.223 277.293 318.123 292.511C319.073 294.361 317.223 297.144 315.307 297.477C303.523 299.578 291.656 300.977 279.889 303.077C277.472 303.494 276.855 301.278 277.821 299.411C281.188 292.977 285.855 288.244 292.289 285.66C288.539 275.026 279.572 266.643 277.705 255.409C271.555 258.893 264.787 261.426 257.82 262.843C259.037 276.177 265.271 288.377 271.154 300.227C272.071 302.078 270.288 304.844 268.338 305.194C256.571 307.278 244.687 308.695 232.92 310.795C230.503 311.212 229.886 308.995 230.852 307.128C234.303 300.561 239.086 295.76 245.703 293.21C244.17 283.543 243.387 273.893 243.537 264.109C242.348 264.076 241.159 264.004 239.97 263.893C234.436 263.393 228.436 262.275 222.47 260.542C220.736 273.259 222.819 285.277 226.269 297.594C226.819 299.594 224.453 302.044 222.536 302.044C210.586 301.961 198.635 301.211 186.685 301.144C184.068 301.128 184.801 297.96 185.834 296.644C190.401 290.81 195.885 287.06 202.818 285.776C203.068 275.326 204.185 265.092 206.385 254.842C206.396 254.709 206.424 254.576 206.469 254.442C206.48 254.365 206.491 254.292 206.502 254.226C206.513 254.203 206.524 254.181 206.535 254.159C201.852 251.659 197.602 248.675 194.101 245.191C187.885 238.974 184.151 230.191 180.617 222.291C175.15 210.14 170.25 197.74 164.95 185.506C159.583 173.089 154.033 160.572 146.816 149.104C141.683 140.954 134.765 130.387 124.882 127.587C92.8804 118.486 112.815 179.323 108.965 193.84C106.648 202.54 94.0635 220.191 83.1298 212.424C72.6961 204.99 71.1124 189.356 71.079 177.539C67.5456 150.255 65.5291 116.37 90.8466 98.4521C103.047 89.8185 117.581 85.285 132.165 82.3515C129.032 73.5845 121.198 66.0169 114.397 59.9834C107.78 54.0998 97.1472 44.0836 87.4638 44.7334C79.8969 45.25 70.7962 51.8332 64.5292 55.7334C59.1123 59.1168 59.0622 61.5341 62.329 67.4843C64.5457 71.5676 67.1956 75.4175 69.3456 79.5341C76.7459 76.5673 84.3633 74.2677 91.997 72.0009C92.397 67.9341 91.9965 64.0005 87.1796 63.6171C84.5797 63.4004 81.3634 62.7341 80.3466 64.9003C80.5799 64.8781 80.8135 64.8562 81.0468 64.8339C84.6298 64.6843 82.2463 70.2509 79.4462 70.7675C78.0961 72.4342 75.1132 73.784 74.6298 71.0839C72.2299 57.5169 85.0637 56.5669 95.1474 58.667C95.7972 58.8004 96.1801 59.5007 96.3134 60.0839C97.3134 64.5673 97.897 68.8005 97.2304 73.3505C96.9971 75.0172 95.8305 76.5009 94.1806 76.9843C85.3636 79.6178 76.4963 82.0678 68.0126 85.6679C67.0293 86.0846 65.5628 86.3514 64.9794 85.1347C61.4126 77.6844 47.9784 63.1336 57.1454 55.0166C64.6791 48.3497 75.9467 42.5326 85.4804 39.4492C95.4307 36.2329 106.997 45.0169 114.131 50.9003C122.764 58.0172 133.482 67.3672 137.332 78.2841C137.682 79.3007 137.249 80.5176 136.516 81.5175C137.049 81.4287 137.576 81.3343 138.099 81.2343C152.032 78.7842 166.183 77.0513 180.317 76.1679C185.801 65.3175 191.618 54.4997 198.802 44.666C202.085 40.1659 205.436 35.483 209.669 31.833C214.619 27.5495 220.136 23.8658 222.97 17.7656C223.503 16.5822 224.92 15.5488 226.236 15.5488C242.487 15.4988 258.771 14.7488 274.821 12.0654ZM117.131 107.269C129.015 115.419 133.915 93.8354 118.965 95.0351C113.415 97.8685 111.414 103.335 117.131 107.269ZM145.899 105.019C157.783 113.186 162.683 91.6017 147.732 92.8017C142.182 95.6352 140.183 101.103 145.899 105.019Z" fill="black"></path>
</svg>