<svg width="366" height="314" viewBox="0 0 366 314" fill="none" xmlns="http://www.w3.org/2000/svg">
<path d="M44.8955 29.487C56.0788 17.5367 73.9035 15.7403 89.2451 17.6579C103.88 19.4949 119.384 26.3581 126.489 39.7819C127.62 40.0645 128.185 41.3361 127.842 42.6481C133.756 57.041 127.741 73.7554 114.62 81.7897C104.406 88.0274 79.9189 94.6288 70.7139 83.0417C60.4797 70.1426 74.106 57.6271 87.6309 60.2917C90.073 60.7562 88.3374 64.4499 87.207 65.2575C83.9974 67.5588 91.3854 68.8711 93.0205 68.7702C93.1551 68.7568 93.2832 68.7366 93.4043 68.7097C94.3933 67.8014 95.6444 67.2561 96.4922 67.5788C99.6413 65.2372 99.1777 59.9077 96.4727 56.2136C89.4477 46.5847 73.1969 50.9652 65.5664 58.6765C65.304 59.928 64.2545 61.2812 63.0635 61.8464C60.1568 66.5498 59.4101 72.8078 60.0156 79.1462C60.9439 79.7519 61.0449 81.2652 60.4395 82.5368C61.4286 88.6329 63.5074 94.5275 65.8691 98.8474C71.9453 109.91 81.2518 117.036 94.3125 115.32C95.5438 115.159 96.028 115.784 96.0078 116.673C96.0886 116.915 96.1289 117.197 96.1289 117.52C96.1289 125.756 96.2904 134.719 98.0869 142.733C98.5108 144.53 96.7751 146.609 95.0996 147.033C76.629 151.777 60.8633 154.664 49.8213 135.507C39.8492 118.187 31.9765 96.042 31.1084 75.9362C30.3817 59.2421 33.1269 42.1036 44.8955 29.487ZM82.5029 120.912C80.7442 125.009 79.3039 129.191 78.2256 133.467C78.1622 133.719 78.0999 133.97 78.0391 134.222C77.2471 137.501 76.6677 140.836 76.3203 144.23L76.2451 145.014C76.5739 145.014 76.9039 145.008 77.2344 144.997C77.8511 144.976 78.4709 144.938 79.0938 144.883C79.7789 144.823 80.4676 144.742 81.1602 144.645C81.9136 144.54 82.6713 144.414 83.4336 144.273C86.2115 143.759 89.0496 143.032 91.9502 142.269C90.9434 136.299 90.6793 130.097 90.6152 124.001L90.5977 121.396C89.5231 121.477 88.4717 121.504 87.4443 121.479C85.9029 121.441 84.4145 121.285 82.9795 121.008L82.5029 120.912ZM67.0195 111.667C66.8901 111.767 66.7593 111.867 66.6289 111.966C66.4584 112.095 66.2873 112.223 66.1152 112.35C65.6454 112.697 65.1697 113.033 64.6895 113.362C63.9744 113.852 63.2481 114.322 62.5137 114.779C62.0351 115.077 61.5526 115.368 61.0674 115.655C60.8583 115.779 60.6497 115.903 60.4395 116.025C56.8102 118.13 53.0301 119.99 49.3565 122.062C51.3853 126.65 53.7665 130.976 56.6699 134.667C57.0325 135.128 57.403 135.579 57.7822 136.019C58.4149 136.754 59.0715 137.459 59.7529 138.131C60.3683 138.739 60.9881 139.298 61.6104 139.812C62.1126 140.227 62.6164 140.614 63.1231 140.971C64.6132 142.023 66.1231 142.829 67.6494 143.437C67.9438 143.554 68.2385 143.665 68.5342 143.767C69.3303 144.044 70.1303 144.271 70.9356 144.449V144.448L70.9365 144.449C71.9661 135.769 74.4088 127.533 77.8809 119.499C73.7024 117.783 70.0888 115.058 67.0205 111.667H67.0195ZM55.3926 85.5446C50.104 87.543 44.7743 89.1981 39.2031 90.1267C39.5934 91.7819 40.0171 93.3908 40.4746 94.9519C41.5874 98.801 42.7443 103.027 44.0615 107.346C44.3543 108.306 44.6551 109.271 44.9648 110.237C45.2513 111.13 45.5465 112.024 45.8496 112.918C46.3658 114.439 46.9072 115.957 47.4795 117.46C53.0106 114.25 58.9055 111.727 64.0732 107.952C59.5515 101.512 56.6643 93.4981 55.3926 85.5446ZM37.1035 57.4245C36.6594 60.4915 36.4391 63.6279 36.4082 66.781C36.4054 67.0676 36.404 67.3544 36.4043 67.6413C36.4063 69.6494 36.4836 71.6624 36.627 73.6667C36.6679 74.2395 36.715 74.8115 36.7666 75.3825C37.0502 78.5226 37.4907 81.6315 38.0527 84.6569C39.3087 84.5076 40.5527 84.3099 41.7871 84.0749C42.3259 83.9723 42.8633 83.865 43.3984 83.7477C43.7508 83.6705 44.1023 83.5898 44.4531 83.5065C47.9602 82.6748 51.3934 81.5503 54.7871 80.2761C54.7737 80.1281 54.7605 79.9797 54.7471 79.8317C54.4124 74.5237 55.2619 69.3798 57.0947 64.737C57.1648 64.5596 57.2357 64.3827 57.3086 64.2067C57.7439 63.1563 58.2291 62.1322 58.7637 61.1394C54.348 59.6254 49.9167 58.4974 45.3857 57.8991C45.1588 57.8691 44.9316 57.8405 44.7041 57.8132C44.4541 57.7832 44.2038 57.7549 43.9531 57.7282C43.5413 57.6843 43.1285 57.645 42.7148 57.6101C42.6778 57.6069 42.6406 57.6043 42.6035 57.6013C42.1765 57.5661 41.7485 57.5348 41.3193 57.5095C41.2936 57.508 41.2679 57.507 41.2422 57.5056C40.3374 57.4534 39.4278 57.4234 38.5127 57.4167C38.5094 57.4167 38.5062 57.4167 38.5029 57.4167C38.0379 57.4134 37.5715 57.4157 37.1035 57.4245ZM80.9082 65.944C80.6028 65.9919 80.3021 66.053 80.0068 66.1267C79.9762 66.1343 79.9456 66.1422 79.915 66.1501C79.6367 66.2222 79.3635 66.3057 79.0957 66.3991C79.0217 66.425 78.9482 66.4518 78.875 66.4792C78.6405 66.567 78.4104 66.6622 78.1856 66.7653C78.1113 66.7994 78.038 66.8351 77.9648 66.8708C77.4293 67.1319 76.9235 67.4345 76.4551 67.7731C76.3104 67.8777 76.1697 67.9863 76.0322 68.0974C75.5531 68.4846 75.1191 68.9097 74.7383 69.364C74.4721 69.6815 74.2308 70.0124 74.0195 70.3552C73.9606 70.4508 73.905 70.5479 73.8506 70.6452C73.6269 71.0453 73.4412 71.4583 73.2998 71.8806C73.2706 71.9678 73.2432 72.0554 73.2178 72.1433C73.1411 72.4079 73.0816 72.6755 73.04 72.945C72.9847 73.3042 72.9613 73.6668 72.9727 74.03C72.9925 74.6652 73.1182 75.3025 73.3623 75.9274C73.3973 76.0169 73.4348 76.1061 73.4746 76.195C73.7928 76.9051 74.2687 77.5963 74.9209 78.2477C75.084 78.4107 75.2578 78.5716 75.4434 78.7292C75.9071 79.1231 76.4424 79.499 77.0527 79.8522C78.0053 80.401 78.9654 80.8578 79.9424 81.2311C80.333 81.3805 80.7266 81.5159 81.1231 81.6394C81.3214 81.7011 81.5207 81.7596 81.7207 81.8151C83.3206 82.2593 84.9764 82.5065 86.7227 82.5974C87.1598 82.6209 87.597 82.6422 88.0342 82.6599C88.9089 82.6952 89.7835 82.7183 90.6582 82.7302L91.9707 82.739C92.0212 81.3965 92.097 80.0541 92.1475 78.7116C92.1606 78.3623 92.1718 78.013 92.1807 77.6638C92.1973 77.0062 92.205 76.3487 92.1973 75.6911C92.1933 75.3555 92.1855 75.0198 92.1729 74.6843C91.7781 74.7082 91.3827 74.7151 90.9893 74.7048C89.6116 74.6687 88.2539 74.4277 86.999 74.0202C86.6403 73.9037 86.2901 73.7734 85.9502 73.6306C85.1009 73.2737 84.3158 72.8379 83.626 72.3356C82.936 71.8334 82.3411 71.2652 81.8711 70.6452C81.8241 70.5831 81.7779 70.5208 81.7334 70.4577C81.6889 70.3946 81.6464 70.3304 81.6045 70.2663C80.9046 69.1958 80.5724 67.9881 80.7471 66.7067C80.7516 66.6737 80.7546 66.6403 80.7598 66.6071C80.7825 66.4618 80.8126 66.3157 80.8486 66.1686L80.9082 65.944ZM101.963 68.9313C101.838 69.1267 101.707 69.3184 101.569 69.5065C100.897 70.4249 100.069 71.2568 99.0859 72.0046C99.0629 72.0221 99.0408 72.0409 99.0176 72.0583C98.7485 72.2604 98.4669 72.4547 98.1748 72.6442C98.0935 72.697 98.0118 72.7497 97.9287 72.8015C97.8608 72.8438 97.7928 72.8867 97.7236 72.9284C97.7842 76.0976 97.5218 79.2875 97.4815 82.4567C98.4512 82.3498 99.4178 82.2094 100.379 82.0329C102.139 81.7101 103.879 81.2595 105.576 80.6198C107.836 79.7829 109.967 78.7027 111.926 77.4304C112.104 77.3149 112.28 77.1984 112.455 77.0798C113.2 76.5744 113.919 76.0418 114.608 75.4821C114.984 75.1769 115.352 74.8639 115.71 74.5436C115.546 74.4723 115.383 74.3994 115.219 74.3278C110.845 72.4147 106.516 70.4296 101.963 68.9313ZM122.897 46.6852C121.94 47.1595 120.954 47.5902 119.956 48.0007C118.696 48.5191 117.413 49.002 116.131 49.4831C114.117 50.2388 112.106 50.9958 110.188 51.8864C109.881 52.0293 109.575 52.1744 109.272 52.3249C109.075 52.423 108.879 52.5229 108.685 52.6247C108.295 52.8282 107.911 53.0395 107.533 53.2595C106.747 53.7171 105.987 54.2146 105.261 54.7604C105.009 54.9494 104.763 55.1451 104.52 55.3464C104.283 55.5425 104.049 55.7431 103.82 55.9519C103.686 56.0595 103.558 56.1604 103.437 56.2546C103.638 56.9542 103.787 57.694 103.881 58.4743C104.069 59.995 104.096 61.4626 103.962 62.8757C104.056 62.8757 104.15 62.8888 104.244 62.9157C105.277 63.2412 106.299 63.5937 107.313 63.9665C107.651 64.0909 107.988 64.2177 108.324 64.3464C112.356 65.8886 116.265 67.7202 120.231 69.4157V69.4147L120.233 69.4157C122.407 66.2768 123.871 62.7557 124.435 59.0427C124.491 58.671 124.542 58.2979 124.58 57.9226C124.826 55.4962 124.686 52.997 124.105 50.4763C124.047 50.2242 123.985 49.9719 123.918 49.7194C123.65 48.7096 123.311 47.6971 122.897 46.6852ZM57.2295 26.5602C57.0288 26.6616 56.8301 26.7648 56.6328 26.8688C56.2998 27.0446 55.9718 27.2244 55.6484 27.4079C55.4375 27.5276 55.2283 27.6482 55.0215 27.7712C54.8777 27.8567 54.7356 27.9439 54.5938 28.031C53.0438 28.9821 51.6108 30.0253 50.2881 31.1511C49.8109 31.5572 49.3482 31.974 48.8994 32.4011C47.6939 33.5483 46.5915 34.7704 45.583 36.0563C45.2248 36.5131 44.8793 36.9782 44.5449 37.4509C43.9702 38.2634 43.4302 39.0985 42.9238 39.9548C42.6669 40.3892 42.4156 40.8273 42.1758 41.2722C40.6122 44.1726 39.4079 47.2899 38.5137 50.5485L38.2549 51.531C38.7782 51.5146 39.3 51.5055 39.8203 51.5036C40.0808 51.5026 40.3409 51.5039 40.6006 51.5065C40.8604 51.5091 41.1198 51.5131 41.3789 51.5192C41.8965 51.5314 42.4128 51.5509 42.9277 51.5769C43.1852 51.5898 43.4424 51.6045 43.6992 51.6208C47.8102 51.8823 51.8396 52.5722 55.8203 53.5974C56.0692 53.6615 56.3179 53.727 56.5664 53.7936C57.0632 53.927 57.5593 54.0653 58.0547 54.2087C58.5502 54.3521 59.0449 54.5008 59.5391 54.654C60.0334 54.8072 60.5273 54.965 61.0205 55.1276L62.4981 55.6286C63.2655 54.7233 64.0861 53.8654 64.9541 53.0563C65.2208 52.8078 65.4918 52.5639 65.7676 52.3249C67.2391 51.05 68.839 49.9114 70.5576 48.9274C70.999 48.6747 71.4486 48.432 71.9053 48.1999C71.8506 48.0393 71.7938 47.8787 71.7373 47.7175C69.1041 40.1996 64.5185 32.08 58.0166 27.8112C57.5927 27.5285 57.3387 27.1737 57.2549 26.7468L57.2295 26.5602ZM93.2422 24.279C93.4642 26.7416 93.1208 29.5681 93.04 31.0417C92.7776 35.8257 92.3127 40.7512 91.1016 45.4343C95.169 46.3339 98.8016 48.3324 101.172 51.5212L101.397 51.8337C101.438 51.7934 101.478 51.7528 101.519 51.7126C101.825 51.4321 102.14 51.1644 102.46 50.9069C102.547 50.8365 102.636 50.7678 102.725 50.6989C103.312 50.2414 103.919 49.8184 104.542 49.4255C104.686 49.335 104.83 49.2464 104.976 49.1589C105.197 49.0254 105.42 48.8951 105.646 48.7683C106.311 48.3933 106.991 48.0446 107.683 47.7175C107.972 47.5808 108.263 47.4481 108.556 47.3181C110.214 46.5812 111.926 45.9413 113.641 45.3063C116.043 44.417 118.449 43.5361 120.717 42.406C120.057 41.3599 119.328 40.3515 118.539 39.3796C118.396 39.2038 118.249 39.0314 118.103 38.8581C112.407 32.1246 103.75 27.2492 94.3125 24.572L93.2422 24.279ZM78.5625 22.2233C73.4976 22.1279 68.5362 22.6912 63.9922 23.9763C70.6334 29.2045 75.0952 38.0659 77.6387 46.0192C78.9238 45.6626 80.2494 45.3902 81.6152 45.2019C81.7861 45.1783 81.9577 45.1564 82.1299 45.1354C82.3018 45.1145 82.4743 45.0951 82.6475 45.0769C83.6872 44.9672 84.7499 44.9045 85.835 44.8894H86.0166C86.3042 43.6556 86.5315 42.3989 86.7158 41.1335C86.7773 40.7114 86.8343 40.2884 86.8867 39.8649C87.0437 38.595 87.1624 37.3209 87.2588 36.0563C87.2909 35.635 87.3209 35.2143 87.3486 34.7956C87.3941 34.2124 87.5641 32.829 87.6943 31.2839C87.7377 30.7689 87.7763 30.2359 87.8047 29.7087C87.8757 28.3906 87.8811 27.108 87.7246 26.2302C87.709 26.1424 87.6918 26.0585 87.6729 25.9792C87.578 25.5826 87.4403 25.2962 87.2481 25.1667C86.9037 24.9283 86.6827 24.632 86.5635 24.3015C86.5465 24.2543 86.5315 24.2064 86.5186 24.1579C86.4408 23.8664 86.4359 23.5522 86.4893 23.2302C86.507 23.1229 86.5313 23.0144 86.5615 22.906C85.5924 22.7596 84.6208 22.6363 83.6494 22.5358C82.9213 22.4605 82.1931 22.3975 81.4658 22.3483C80.4958 22.2828 79.5272 22.2415 78.5625 22.2233Z" fill="black"></path>
<path d="M242.197 57.7477C241.895 39.3379 251.846 26.1765 271.063 28.2555C289.554 30.254 307.763 40.4281 319.915 54.2155C343.957 81.5077 339.374 127.916 305.966 145.559C289.958 154.017 270.155 156.218 253.077 149.415C237.07 143.036 233.275 131.045 230.771 115.057C230.61 114.008 231.236 112.837 232.124 111.969C232.393 111.606 232.703 111.296 233.053 111.041C236.908 108.497 240.118 106.236 243.206 103.047C244.942 101.23 247.728 99.6555 250.312 100.16C254.187 100.887 256.751 104.016 259.577 106.519C265.653 111.869 272.376 114.19 280.511 112.03C300.354 106.741 306.471 86.1508 298.094 68.4069C294.864 61.5839 289.656 54.4783 281.823 52.6413C278.028 51.7733 267.249 51.2885 267.329 57.8288C267.894 58.2325 268.237 58.9595 268.177 59.7468C268.136 59.9888 268.07 60.2242 267.976 60.4528C269.59 62.9761 275.061 69.3147 275.263 64.5514C275.343 62.4924 278.129 59.7868 280.168 61.2604C293.511 70.9903 290.927 81.9925 275.182 86.696C258.265 91.7627 242.46 73.0491 242.197 57.7477ZM286.769 115.299C286.151 115.582 285.518 115.848 284.871 116.1C282.588 116.99 280.125 117.693 277.482 118.207C276.769 118.341 276.076 118.449 275.403 118.53C275.08 128.139 273.667 137.808 274.777 147.377V147.518C275.678 147.564 276.579 147.586 277.479 147.587C277.481 147.587 277.483 147.587 277.485 147.587C278.37 147.587 279.254 147.567 280.137 147.524C283.14 147.378 286.123 146.978 289.05 146.306C293.874 145.216 298.416 143.501 302.595 141.321L302.594 141.32H302.595C297.972 132.236 292.623 123.636 286.769 115.299ZM248.848 106.906C246.712 106.604 245.359 108.644 242.296 110.677C240.399 111.942 238.508 113.2 236.624 114.452C238.299 125.11 240.661 136.556 251.44 141.643C253.327 142.531 255.271 143.325 257.258 144.026C258.671 144.525 260.106 144.975 261.559 145.374C262.31 145.58 263.066 145.773 263.825 145.952C264.639 146.144 265.457 146.32 266.279 146.479C266.915 146.603 267.552 146.716 268.191 146.82C268.469 146.865 268.746 146.912 269.024 146.953C268.419 137.485 269.731 128.017 269.913 118.549C269.606 118.513 269.303 118.468 269.002 118.419C268.176 118.284 267.373 118.102 266.589 117.878C265.985 117.705 265.393 117.507 264.81 117.285C264.705 117.245 264.602 117.205 264.498 117.164C260.328 115.505 256.612 112.629 252.634 109.123C251.534 108.151 250.636 107.537 249.857 107.2C249.833 107.189 249.809 107.18 249.785 107.171C249.453 107.033 249.143 106.948 248.848 106.906ZM299.202 105.793L299.201 105.792C297.317 108.174 295.07 110.28 292.459 112.11C298.131 120.245 303.299 128.623 307.78 137.465C307.888 137.666 307.956 137.875 307.982 138.091L307.983 138.089L307.984 138.091C315.413 133.024 321.328 126.221 325.144 118.328C325.142 118.328 325.141 118.328 325.14 118.329L325.141 118.328C324.845 118.462 324.542 118.543 324.232 118.57C323.954 118.58 323.676 118.583 323.397 118.578C323.383 118.578 323.368 118.576 323.354 118.576C323.11 118.571 322.867 118.56 322.623 118.545C322.114 118.512 321.604 118.455 321.095 118.377C320.692 118.315 320.29 118.24 319.888 118.152C319.544 118.077 319.2 117.993 318.856 117.9C318.808 117.887 318.759 117.874 318.71 117.86C311.609 115.882 304.706 110.219 299.204 105.792L299.202 105.793ZM329.542 90.7946V90.7936C328.957 91.3182 328.271 91.6606 327.564 91.6608C320.338 91.6406 313.132 91.3789 305.905 91.3386H305.904C305.258 94.4741 304.235 97.4216 302.836 100.18C309.056 105.208 317.583 112.718 325.742 112.663C325.872 112.662 326.001 112.661 326.131 112.656C326.669 112.656 327.08 112.764 327.362 112.979V112.977L327.364 112.978C329.726 106.115 330.553 98.6056 329.544 90.7936L329.542 90.7946ZM318.885 64.0261C314.827 67.1751 310.042 68.8106 305.278 70.486C306.55 75.6132 307.035 80.6398 306.732 85.444L306.733 85.443V85.444C306.755 85.4369 306.778 85.4317 306.804 85.4284C306.825 85.4257 306.849 85.4245 306.873 85.4245C314.12 85.4447 321.368 85.7064 328.635 85.7468L328.634 85.7458L328.636 85.7468C328.568 85.4778 328.508 85.2021 328.454 84.9196C326.557 77.2689 323.246 70.2637 318.886 64.0261H318.885ZM279.116 68.8923L279.115 68.8913C278.187 70.2349 276.945 71.0745 275.553 71.4889C275.525 71.4972 275.497 71.5035 275.469 71.5114C274.857 71.6852 274.219 71.7803 273.564 71.7985C272.616 74.786 272.192 77.8341 272.151 80.9831C272.151 81.1175 272.137 81.252 272.11 81.3864L272.113 81.3854V81.3864C272.652 81.373 273.19 81.3265 273.729 81.2458C278.593 80.5796 287.233 76.4209 281.218 70.7487C280.531 70.1028 279.831 69.4834 279.118 68.8913L279.116 68.8923ZM262.726 64.2477C258.83 65.7213 254.934 67.0946 250.836 67.7204C251.28 68.5007 251.771 69.2476 252.31 69.9606C253.008 70.8611 253.784 71.7625 254.624 72.6432C255.043 73.0828 255.479 73.517 255.93 73.943C256.688 74.6601 257.489 75.3538 258.324 76.0104C258.714 76.3168 259.111 76.6152 259.516 76.904C259.724 77.0527 259.934 77.199 260.145 77.3425C260.511 77.5899 260.882 77.8288 261.257 78.0593C261.419 78.1587 261.582 78.2563 261.745 78.3522C262.403 78.7382 263.074 79.0955 263.757 79.4196C263.933 79.5034 264.11 79.5846 264.288 79.6638C265.081 80.017 265.887 80.3258 266.703 80.5788C266.905 77.1877 267.511 73.8371 268.702 70.6276L268.7 70.6266H268.701C268.474 70.5138 268.25 70.3902 268.027 70.2624C267.804 70.1337 267.582 69.9995 267.364 69.8561C267.227 69.7658 267.092 69.6719 266.958 69.5759C265.133 68.2689 263.592 66.4431 262.727 64.2487H262.726V64.2477ZM291.754 41.1159L291.752 41.1149C290.796 43.011 289.591 44.7954 288.549 46.6638C288.489 46.7708 288.431 46.8784 288.372 46.986C288.158 47.3797 287.95 47.7763 287.756 48.1804C295.184 51.7534 300.655 57.8701 303.703 65.5407C304.37 65.2959 305.044 65.0603 305.721 64.8259C309.286 63.5907 312.931 62.3996 316.02 60.2106C309.499 52.1764 301.162 45.6771 291.755 41.1149L291.754 41.1159ZM256.559 35.8259C256.459 35.8728 256.361 35.9196 256.263 35.9684C255.911 36.1441 255.568 36.3331 255.233 36.5339C251.071 39.0314 248.283 43.4872 247.868 50.3805C247.626 54.2159 247.767 58.3545 248.736 62.2302C248.844 62.2033 248.958 62.1831 249.079 62.1696C249.211 62.1661 249.342 62.1607 249.474 62.155C249.499 62.1539 249.524 62.1522 249.549 62.1511C250.173 62.1217 250.792 62.0657 251.406 61.9899C255.075 61.5378 258.589 60.3183 262.061 58.9997C262.222 57.4253 262.767 55.7768 263.695 54.0544C264.099 53.3411 264.564 52.6744 265.089 52.0554C264.887 51.8134 264.693 51.568 264.503 51.321C264.336 51.104 264.173 50.8864 264.015 50.6657C260.752 46.1078 259.259 40.7913 256.771 35.7243C256.7 35.7569 256.63 35.7923 256.559 35.8259ZM265.437 34.0182C264.593 34.0259 263.763 34.0702 262.947 34.1501C264.986 38.9746 266.5 44.0419 270.194 47.9782C270.208 47.9917 270.222 48.0121 270.235 48.0388V48.0378L270.236 48.0388C273.374 46.4541 277.037 45.735 280.503 45.9958C280.688 46.0097 280.873 46.026 281.058 46.0456C281.287 46.07 281.516 46.0993 281.743 46.1325C281.924 46.159 282.105 46.1883 282.284 46.2204C282.634 46.2829 282.98 46.356 283.322 46.4401C283.354 46.4479 283.386 46.4556 283.417 46.4636V46.4626L283.418 46.4636C284.831 43.9607 286.527 41.4983 287.354 39.2175C287.368 39.1907 287.381 39.1704 287.395 39.1569L287.393 39.1559H287.394C286.25 38.6887 285.094 38.2486 283.928 37.8337C283.547 37.6981 283.165 37.5651 282.781 37.4352C281.817 37.1087 280.846 36.8004 279.869 36.5114C279.632 36.4413 279.394 36.3723 279.156 36.3044C278.258 36.048 277.354 35.8071 276.445 35.5837C276.006 35.4758 275.566 35.3722 275.125 35.2722C274.237 35.0707 273.345 34.8852 272.448 34.7165C272.035 34.6387 271.62 34.5636 271.205 34.4929C271.176 34.488 271.147 34.483 271.118 34.4782C270.831 34.4308 270.545 34.3884 270.261 34.3483C269.478 34.2379 268.705 34.1543 267.943 34.0993C267.449 34.0636 266.958 34.0394 266.473 34.027C266.296 34.0225 266.12 34.0197 265.945 34.0182H265.437Z" fill="black"></path>
<path d="M211.213 88.6935C227.705 88.8549 252.171 80.4579 257.5 102.34C262.102 121.335 258.227 143.258 255.805 162.334C254.412 173.316 251.747 183.793 247.427 194.007C244.924 199.901 242.562 207.754 237.334 211.912C232.631 215.667 227.079 215.606 221.306 215.566C217.242 215.539 213.184 215.452 209.134 215.304C209.457 221.4 211.354 227.436 210.829 233.552C210.163 241.142 210.688 248.53 210.829 256.141C211.071 269.807 209.699 283.332 208.003 296.877C210.405 296.877 212.788 296.796 215.21 296.877C216.481 296.918 217.067 297.907 217.026 299.098C216.905 302.792 216.683 306.466 216.582 310.16C216.521 311.957 214.665 313.833 212.868 313.854C206.509 313.934 200.191 314.136 193.832 313.854C192.5 313.793 192.035 312.844 191.995 311.653C191.511 294.616 192.399 277.7 193.448 260.723C194.336 246.068 195.063 229.414 190.259 215.364C190.138 215.001 190.112 214.638 190.179 214.275C189.681 214.234 189.182 214.2 188.685 214.173C183.618 213.769 178.49 213.184 173.343 212.639C168.76 228.142 170.416 246.573 171.506 262.298C172.535 277.034 172.858 291.851 172.435 306.608C172.374 308.465 170.516 310.22 168.72 310.301C162.361 310.604 156.023 310.382 149.685 310.301C148.332 310.301 147.887 309.251 147.847 308.101C147.746 304.427 147.524 300.713 147.403 297.039C147.343 295.222 149.401 293.385 151.117 293.345C152.813 293.304 154.495 293.304 156.164 293.345C154.509 280.365 152.894 267.123 153.601 254.082C154.025 246.492 153.58 239.063 153.601 231.493C153.621 224.771 155.357 218.291 155.377 211.569V211.509C155.135 211.495 154.886 211.488 154.63 211.488C145.001 211.569 135.372 212.296 125.743 211.852C117.447 211.468 107.151 211.065 100.065 206.099C93.2627 201.335 91.8097 194.189 91.3252 186.276C90.6389 174.971 92.5965 163.747 91.6074 152.423C90.3962 138.212 89.3666 124 89.2656 109.708V95.7589C89.2657 94.144 90.8405 92.6102 92.2939 92.1662C100.752 89.6227 110.018 89.9256 118.759 90.0265C133.838 90.1678 148.796 88.9159 163.855 88.3507C179.641 87.7653 195.427 88.5118 211.213 88.6935ZM215.251 115.522C201.807 114.351 187.978 116.571 174.595 117.782C156.952 119.357 139.228 118.63 121.545 118.59C119.789 118.57 117.831 120.508 117.831 122.284V128.966C117.831 129.047 117.837 129.114 117.851 129.168C117.837 129.343 117.837 129.512 117.851 129.673C119.163 139.08 115.711 149.658 114.419 158.943C113.632 164.757 111.654 175.516 116.316 180.421C121.969 186.316 132.587 182.4 139.249 180.684C145.628 179.049 152.027 178.564 153.965 185.952C155.015 189.889 156.871 192.917 159.657 195.864C160.788 197.095 162.765 195.662 163.553 194.815C165.329 192.978 166.642 191.02 167.954 188.819C170.901 183.914 172.718 182.117 175.181 188.476C176.897 192.957 178.854 195.884 183.881 194.431C188.019 193.26 190.785 189.93 191.915 185.993C193.409 180.826 194.317 189.142 194.378 190.717C194.459 192.958 197.022 195.057 198.415 196.43C205.117 202.99 208.771 189.95 209.518 185.791C211.254 176.142 217.33 181.33 223.891 177.899C227.726 175.88 229.826 171.661 230.593 167.583C232.874 155.35 232.389 142.067 230.653 129.794C229.2 119.56 225.425 116.41 215.251 115.522Z" fill="black"></path>
<path d="M137.774 138.01C133.757 138.555 131.577 140.412 132.303 142.632C133.212 145.418 140.499 146.447 145.243 145.418C149.603 144.489 151.44 142.551 149.24 140.412C147.06 138.454 143.608 137.444 139.409 137.545L137.774 138.01Z" fill="black"></path>
<path d="M203.379 138.01C199.362 138.555 197.182 140.412 197.909 142.632C198.817 145.418 206.105 146.447 210.848 145.418C215.229 144.489 217.046 142.551 214.845 140.412C212.665 138.454 209.213 137.444 205.015 137.545L203.379 138.01Z" fill="black"></path>
</svg>