<svg width="366" height="314" viewBox="0 0 366 314" fill="none" xmlns="http://www.w3.org/2000/svg">
<path d="M296.53 236.346C294.639 225.62 280.467 234.615 279.23 226.698C277.48 215.459 273.628 206.058 268.114 196.197C265.446 191.426 262.778 186.831 259.314 182.608C255.373 177.819 249.436 175.08 245.106 170.609C248.623 166.686 251.698 162.392 254.207 157.709C261.258 144.632 262.089 129.435 258.413 115.227C257.211 110.597 255.426 106.374 253.165 102.557C261.505 102.115 269.069 93.2266 273.151 86.8296C279.3 77.1634 281.615 66.3309 279.654 55.0566C277.816 44.4715 267.92 37.7918 260.94 30.6526C258.749 28.4083 255.197 32.508 255.091 34.5756C254.101 53.4308 252.281 76.6863 228.902 78.7185C228.036 78.8068 227.17 79.3369 226.463 80.0615C226.239 79.9554 226.016 79.8553 225.792 79.7611C217.539 76.2268 208.951 74.4067 200.221 73.4524C198.384 63.8923 197.606 54.2967 194.372 44.9486C193.171 41.4851 188.859 45.9912 188.24 47.4049C184.706 55.5337 181.967 63.9099 179.546 72.3921C177.26 72.3686 174.975 72.3509 172.69 72.3391C160.973 72.7986 150.512 79.443 141.676 87.2007C141.453 86.7766 141.046 86.4526 140.457 86.2288C123.952 80.5916 114.745 65.0585 110.699 48.854C110.116 46.5037 107.606 46.8395 106.051 48.0411C87.991 62.1251 95.254 110.244 119.958 113.549C116.954 119.61 115.134 126.166 115.169 133.234C115.258 149.527 120.648 165.414 131.409 177.289C122.521 194.854 105.592 220.424 114.463 240.305C111.299 241.383 108.737 243.645 107.412 247.32C105.698 252.109 109.108 254.106 112.855 254.406C112.201 260.839 120.93 263.507 127.08 259.849C131.003 262.8 136.322 263.03 140.704 260.556C143.497 258.983 147.667 253.222 144.628 250.13C130.208 235.357 138.054 211.801 149.434 196.568C147.702 208.108 144.645 219.841 150.671 230.727C153.799 236.399 161.468 240.64 159.896 247.956C158.835 252.904 156.432 257.251 155.354 262.076C149.01 262.694 141.818 264.815 137.895 269.551C132.558 275.983 137.029 280.242 143.885 282.027C154.559 284.801 168.166 286.391 178.221 281.019C183.787 278.051 186.314 272.078 180.924 269.162C181.525 266.547 181.861 263.931 182.091 261.21C182.356 258.082 181.454 250.042 184.476 248.168C190.096 244.669 199.002 245.359 205.912 245.253C205.859 252.074 207.573 258.524 209.516 265.133C210.842 269.621 211.531 274.587 214.995 278.015C219.66 282.592 232.33 279.146 238.109 278.174C243.463 277.273 254.26 273.809 252.758 266.246C250.673 255.661 237.914 259.019 229.679 259.248C228.973 255.308 228.283 251.367 227.806 247.373C227.453 244.334 227.789 241.542 228.054 238.591C228.136 238.508 228.23 238.42 228.336 238.325C234.133 233.36 239.028 226.168 240.777 218.728C243.622 206.517 238.904 191.62 228.248 184.675C228.283 184.652 228.325 184.622 228.372 184.587C228.384 184.599 228.389 184.611 228.389 184.622C236.324 190.966 244.205 197.363 250.567 205.351C257.706 214.328 261.24 225.602 263.538 236.664C264.51 241.294 263.838 245.288 263.432 249.9C263.255 251.879 263.997 254.76 266.1 255.537C269.51 256.81 272.709 256.014 275.342 254.124C277.463 258.577 285.644 256.209 286.881 250.501C290.963 250.042 294.18 246.772 292.96 243.698C295.47 242.266 297.166 239.845 296.53 236.346ZM227.895 238.732C227.4 239.616 226.34 240.128 227.895 238.732ZM212.203 185.7C210.577 186.289 208.927 186.825 207.255 187.308L173.131 189.623C154.488 186.778 137.4 176.935 128.211 159.14C119.534 142.335 119.093 123.232 130.049 107.858C131.71 105.526 133.583 103.087 135.668 100.666C137.948 98.74 140.174 96.7255 141.818 94.2338C141.865 94.1632 141.912 94.0866 141.959 94.0041C150.123 86.1934 160.072 79.7787 170.445 79.3723C172.778 79.3841 175.158 79.4194 177.584 79.4783C176.241 84.5794 174.922 89.6923 173.626 94.817C173.237 95.5769 173.078 96.3897 173.308 97.1673C173.355 97.2969 173.402 97.4265 173.449 97.5561C173.461 97.5914 173.473 97.6267 173.485 97.6621C177.408 108.265 195.362 100.366 200.345 94.0925C203.367 90.2755 202.96 85.8753 202.006 81.4575C223.636 84.8327 243.763 93.6153 251.274 116.623C261.523 147.99 241.113 175.133 212.203 185.7Z" fill="black"></path>
<path d="M243.834 166.191C243.74 165.956 243.64 165.714 243.534 165.467C243.251 164.778 242.65 164.742 242.032 165.043C238.197 162.251 236.023 153.309 232.754 150.411C231.818 149.58 230.598 150.747 230.121 151.471C227.205 155.73 224.201 159.9 221.392 164.212C216.62 160.837 212.468 156.755 207.944 153.044C207.042 152.302 205.735 153.291 205.311 154.104C202.819 158.752 199.868 162.957 196.21 166.721C192.923 161.261 188.647 151.453 181.419 154.652C175.87 157.126 169.791 163.753 166.186 169.443C163.147 165.184 158.058 157.921 153.18 159.441C146.66 161.473 141.659 167.782 135.138 170.45C133.318 171.192 133.283 174.497 135.686 173.507C140.952 171.351 145.352 168.488 149.699 164.866C155.831 159.777 161.062 169.337 164.508 173.737C165.374 174.815 166.858 173.984 167.388 172.959C169.95 168.011 174.651 163.682 178.768 160.059C186.137 153.556 190.52 165.414 194.072 170.556C194.584 171.316 195.644 171.192 196.263 170.609C200.469 166.633 203.862 162.162 206.742 157.232C211.16 160.978 215.313 165.007 220.172 168.223C221.179 168.877 222.275 168.011 222.805 167.163C225.474 162.887 228.407 158.769 231.27 154.634C234.451 158.822 236.677 167.552 241.378 169.125C242.898 169.637 244.364 167.534 243.834 166.191Z" fill="black"></path>
<path d="M152.578 113.072C153.302 112.489 154.151 112.135 154.999 112.241C159.646 112.824 163.516 112.347 167.898 114.574C172.069 116.694 176.098 120.511 177.989 124.84C181.859 133.729 178.236 143.343 169.118 147.213C160.812 150.729 146.552 148.449 141.356 140.409C134.606 129.947 142.947 117.931 152.578 113.072ZM155.193 133.694C163.976 139.72 167.598 123.763 156.553 124.646C152.454 126.749 150.97 130.778 155.193 133.694Z" fill="black"></path>
<path d="M222.256 106.868C222.91 106.391 223.652 106.109 224.411 106.18C228.476 106.586 232.187 106.162 235.915 108.194C239.697 110.261 242.277 113.866 243.815 117.824C246.819 125.653 244.716 135.92 236.941 140.197C227.928 145.162 213.561 142.335 209.762 131.98C206.404 122.844 214.057 110.756 222.256 106.868ZM224.924 128.463C233.707 134.507 237.329 118.55 226.285 119.433C222.186 121.518 220.701 125.565 224.924 128.463Z" fill="black"></path>
</svg>